<?xml version="1.0" encoding="utf-8"?>
<!-- Generator: Adobe Illustrator 16.0.0, SVG Export Plug-In . SVG Version: 6.00 Build 0)  -->
<!DOCTYPE svg PUBLIC "-//W3C//DTD SVG 1.1//EN" "http://www.w3.org/Graphics/SVG/1.1/DTD/svg11.dtd">
<svg version="1.1" id="Layer_1" xmlns="http://www.w3.org/2000/svg" xmlns:xlink="http://www.w3.org/1999/xlink" x="0px" y="0px"
	 width="250px" height="110px" viewBox="-65 -30 250 110" enable-background="new -65 -30 250 110" xml:space="preserve">
<g>
	<g>
		<path id="path2" fill="#014026" d="M-13.378-23.434L-1.81,14.217l37.65,11.566L-1.81,37.35L-13.378,75l-11.564-37.65
			l-37.653-11.563l37.65-11.567L-13.378-23.434z"/>
		<path id="path4" fill="#FFFFFF" d="M-34.968,31.852v-2.156h5.513c0.877,0,1.467-0.091,1.766-0.268
			c0.426-0.251,0.637-0.632,0.637-1.148c0-0.584-0.248-1.012-0.742-1.293c-0.288-0.154-0.739-0.23-1.354-0.23h-2.235
			c-1.359,0-2.343-0.248-2.956-0.746c-0.37-0.308-0.665-0.698-0.879-1.178c-0.214-0.481-0.323-0.988-0.323-1.524
			c0-0.846,0.246-1.624,0.742-2.336c0.471-0.666,1.25-1.063,2.333-1.184c0.352-0.037,0.892-0.055,1.61-0.055h5.998v2.159h-5.41
			c-0.794,0-1.334,0.037-1.611,0.107c-0.544,0.138-0.816,0.544-0.816,1.228c0,0.576,0.229,0.967,0.681,1.166
			c0.148,0.063,0.346,0.116,0.601,0.147c0.254,0.038,0.559,0.052,0.918,0.052h1.94c0.49,0,0.918,0.023,1.29,0.063
			c0.373,0.039,0.68,0.108,0.928,0.194c0.852,0.285,1.436,0.796,1.761,1.531c0.261,0.59,0.39,1.222,0.39,1.885
			c0,0.723-0.17,1.387-0.505,1.986c-0.464,0.816-1.176,1.313-2.132,1.483c-0.501,0.077-1.193,0.115-2.071,0.115H-34.968z
			 M-14.489,19.659c1.211,0,2.275,0.205,3.188,0.62c1.078,0.483,1.833,1.312,2.269,2.476c0.344,0.922,0.517,1.987,0.517,3.21
			c0,1.234-0.209,2.302-0.629,3.197c-0.515,1.082-1.307,1.84-2.385,2.269c-0.796,0.319-1.72,0.48-2.77,0.48
			c-1.361,0-2.543-0.253-3.553-0.764c-0.837-0.427-1.483-1.088-1.93-1.991c-0.453-0.906-0.675-2.01-0.675-3.308
			c0-2.307,0.571-3.949,1.718-4.931c0.49-0.413,1.086-0.725,1.792-0.938C-16.25,19.763-15.427,19.659-14.489,19.659L-14.489,19.659z
			 M-14.471,21.693c-1.195,0-2.045,0.385-2.556,1.157c-0.403,0.608-0.603,1.58-0.603,2.911c0,1.416,0.25,2.458,0.753,3.122
			c0.5,0.663,1.306,0.99,2.415,0.99c1.064,0,1.846-0.332,2.353-0.999c0.506-0.661,0.76-1.692,0.76-3.089
			c0-1.257-0.204-2.224-0.611-2.896C-12.446,22.092-13.282,21.693-14.471,21.693L-14.471,21.693z M-0.463,19.731l3.013,9.471
			l3.173-9.471h3.75v12.12H7.024v-9.109l-3.168,9.109l-2.653,0.007l-2.972-9.109l-0.011,9.103h-2.449v-12.12H-0.463z"/>
		<path id="path6" fill="#FFFFFF" d="M-19.156,17.343v-2.161h5.513c0.877,0,1.467-0.086,1.769-0.268
			c0.426-0.25,0.635-0.631,0.635-1.146c0-0.586-0.247-1.012-0.743-1.291c-0.287-0.155-0.736-0.232-1.353-0.232h-2.235
			c-1.359,0-2.343-0.249-2.956-0.745c-0.373-0.31-0.665-0.701-0.879-1.181c-0.216-0.481-0.323-0.99-0.323-1.523
			c0-0.847,0.249-1.626,0.745-2.336c0.472-0.664,1.249-1.063,2.332-1.182c0.353-0.04,0.893-0.056,1.612-0.056h5.996v2.157h-5.412
			c-0.795,0-1.335,0.037-1.612,0.108c-0.542,0.137-0.814,0.543-0.814,1.228c0,0.576,0.226,0.967,0.681,1.166
			c0.149,0.066,0.347,0.116,0.601,0.148c0.253,0.037,0.561,0.055,0.92,0.055h1.937c0.49,0,0.919,0.021,1.292,0.063
			c0.372,0.039,0.679,0.107,0.927,0.194c0.852,0.285,1.438,0.795,1.762,1.53c0.259,0.592,0.39,1.222,0.39,1.888
			c0,0.724-0.17,1.384-0.504,1.986c-0.467,0.816-1.178,1.313-2.131,1.483c-0.503,0.079-1.194,0.116-2.074,0.116h-6.072V17.343z
			 M-17.147,34.22l3.012,9.475l3.17-9.475h3.754v12.124H-9.66v-9.109l-3.165,9.109l-2.655,0.004l-2.973-9.108l-0.01,9.104h-2.449
			V34.223h3.764V34.22z"/>
	</g>
	<path id="path8" fill="#014026" d="M102.714,18.684c0,0.734-0.135,1.37-0.407,1.923c-0.272,0.549-0.638,1.006-1.108,1.376
		c-0.467,0.365-1.007,0.644-1.633,0.83c-0.619,0.189-1.288,0.28-1.999,0.28c-0.48,0-0.923-0.041-1.332-0.122
		c-0.413-0.079-0.774-0.175-1.089-0.29c-0.316-0.108-0.581-0.226-0.791-0.352c-0.213-0.125-0.366-0.233-0.46-0.324
		c-0.093-0.096-0.157-0.229-0.199-0.407c-0.04-0.177-0.056-0.426-0.056-0.757c0-0.222,0.004-0.407,0.021-0.555
		c0.013-0.149,0.034-0.272,0.068-0.368c0.034-0.091,0.076-0.157,0.132-0.196c0.051-0.042,0.114-0.059,0.187-0.059
		c0.098,0,0.243,0.059,0.426,0.181c0.183,0.116,0.416,0.248,0.702,0.393c0.289,0.142,0.629,0.274,1.028,0.391
		c0.399,0.123,0.858,0.18,1.382,0.18c0.345,0,0.65-0.04,0.923-0.122c0.276-0.084,0.506-0.196,0.697-0.349
		c0.191-0.147,0.332-0.332,0.434-0.553c0.103-0.22,0.153-0.464,0.153-0.735c0-0.316-0.085-0.586-0.259-0.811
		c-0.17-0.229-0.396-0.427-0.672-0.601c-0.277-0.174-0.591-0.34-0.946-0.494c-0.343-0.155-0.711-0.315-1.081-0.487
		c-0.373-0.173-0.739-0.366-1.083-0.589c-0.352-0.215-0.669-0.477-0.944-0.778c-0.277-0.303-0.5-0.665-0.674-1.081
		c-0.175-0.412-0.26-0.911-0.26-1.49c0-0.665,0.13-1.251,0.37-1.756c0.246-0.501,0.585-0.918,0.999-1.254
		c0.421-0.333,0.91-0.581,1.481-0.744c0.566-0.166,1.17-0.246,1.808-0.246c0.325,0,0.655,0.023,0.984,0.078
		c0.332,0.047,0.64,0.118,0.925,0.2c0.285,0.09,0.541,0.184,0.764,0.289c0.221,0.109,0.365,0.199,0.439,0.272
		c0.069,0.069,0.117,0.133,0.139,0.181c0.027,0.05,0.046,0.116,0.067,0.201c0.018,0.079,0.028,0.183,0.036,0.312
		c0.009,0.123,0.014,0.277,0.014,0.463c0,0.204-0.005,0.381-0.017,0.524c-0.012,0.142-0.028,0.26-0.056,0.354
		c-0.025,0.092-0.058,0.162-0.106,0.202c-0.045,0.041-0.106,0.063-0.188,0.063c-0.076,0-0.206-0.052-0.374-0.149
		c-0.175-0.098-0.389-0.209-0.634-0.329c-0.255-0.117-0.544-0.224-0.871-0.317c-0.33-0.099-0.688-0.146-1.082-0.146
		c-0.309,0-0.581,0.037-0.809,0.113c-0.228,0.074-0.416,0.182-0.571,0.312s-0.272,0.29-0.344,0.477
		c-0.076,0.188-0.115,0.384-0.115,0.591c0,0.31,0.084,0.577,0.254,0.799c0.164,0.227,0.396,0.429,0.679,0.604
		c0.28,0.172,0.602,0.336,0.959,0.491c0.357,0.154,0.723,0.318,1.097,0.488c0.375,0.169,0.74,0.366,1.098,0.584
		c0.356,0.221,0.679,0.482,0.954,0.786c0.281,0.304,0.506,0.658,0.683,1.072C102.63,17.646,102.714,18.126,102.714,18.684
		L102.714,18.684z M117.343,15.747c0,1.151-0.141,2.18-0.43,3.087c-0.28,0.908-0.706,1.683-1.276,2.313
		c-0.564,0.633-1.263,1.116-2.096,1.452c-0.833,0.332-1.799,0.499-2.892,0.499c-1.08,0-2.024-0.142-2.823-0.426
		c-0.808-0.282-1.477-0.711-2.017-1.293c-0.535-0.579-0.939-1.315-1.207-2.21c-0.264-0.894-0.399-1.951-0.399-3.175
		c0-1.12,0.138-2.131,0.427-3.028c0.285-0.898,0.711-1.658,1.275-2.287c0.568-0.632,1.264-1.115,2.099-1.448
		c0.834-0.337,1.802-0.506,2.904-0.506c1.049,0,1.976,0.14,2.779,0.417s1.476,0.708,2.016,1.291c0.545,0.578,0.954,1.308,1.227,2.19
		C117.207,13.504,117.343,14.545,117.343,15.747L117.343,15.747z M114.379,15.889c0-0.728-0.06-1.392-0.175-1.988
		c-0.11-0.597-0.308-1.109-0.585-1.537c-0.272-0.422-0.642-0.753-1.097-0.987c-0.459-0.23-1.029-0.348-1.714-0.348
		c-0.691,0-1.271,0.132-1.734,0.392c-0.464,0.262-0.843,0.612-1.13,1.048c-0.284,0.438-0.488,0.946-0.601,1.528
		c-0.122,0.586-0.18,1.203-0.18,1.855c0,0.758,0.058,1.439,0.175,2.041c0.115,0.605,0.309,1.124,0.581,1.556
		c0.271,0.429,0.633,0.755,1.093,0.981c0.459,0.225,1.032,0.337,1.726,0.337c0.691,0,1.271-0.127,1.73-0.389
		c0.464-0.257,0.842-0.608,1.127-1.052c0.286-0.444,0.485-0.961,0.604-1.548C114.317,17.19,114.379,16.554,114.379,15.889
		L114.379,15.889z M135.896,22.468c0,0.069-0.018,0.137-0.056,0.193c-0.042,0.055-0.115,0.103-0.217,0.14
		c-0.102,0.032-0.242,0.063-0.412,0.085c-0.175,0.021-0.391,0.033-0.655,0.033c-0.264,0-0.48-0.011-0.65-0.033
		c-0.17-0.021-0.311-0.053-0.412-0.085c-0.095-0.037-0.171-0.085-0.209-0.14c-0.042-0.059-0.067-0.126-0.067-0.193V11.162h-0.021
		l-4.01,11.295c-0.03,0.091-0.073,0.167-0.141,0.23c-0.068,0.063-0.148,0.11-0.264,0.146c-0.111,0.034-0.251,0.059-0.421,0.069
		c-0.168,0.01-0.383,0.014-0.623,0.014c-0.242,0-0.451-0.007-0.621-0.024c-0.17-0.02-0.316-0.048-0.425-0.089
		c-0.106-0.042-0.196-0.087-0.257-0.142c-0.064-0.059-0.113-0.129-0.134-0.204l-3.868-11.295h-0.023v11.306
		c0,0.069-0.021,0.137-0.058,0.193c-0.04,0.055-0.117,0.103-0.223,0.14c-0.113,0.032-0.251,0.063-0.415,0.085
		c-0.17,0.021-0.385,0.033-0.653,0.033c-0.253,0-0.471-0.011-0.646-0.033c-0.175-0.021-0.313-0.053-0.411-0.085
		c-0.102-0.037-0.179-0.085-0.219-0.14c-0.04-0.059-0.057-0.126-0.057-0.193V10.09c0-0.365,0.094-0.644,0.288-0.837
		c0.196-0.192,0.451-0.29,0.772-0.29h1.848c0.329,0,0.621,0.026,0.854,0.08c0.234,0.055,0.442,0.144,0.617,0.269
		c0.165,0.124,0.311,0.289,0.425,0.496c0.115,0.204,0.217,0.457,0.302,0.757l2.989,8.276h0.045l3.098-8.256
		c0.094-0.299,0.196-0.554,0.307-0.763c0.114-0.204,0.241-0.371,0.387-0.501c0.148-0.128,0.323-0.22,0.519-0.274
		c0.204-0.054,0.438-0.08,0.706-0.08h1.9c0.191,0,0.357,0.026,0.497,0.079c0.141,0.047,0.261,0.121,0.345,0.22
		c0.09,0.095,0.157,0.212,0.205,0.353c0.051,0.14,0.067,0.3,0.067,0.479v12.371H135.896z M57.3,30.831
		c0,0.171-0.003,0.323-0.022,0.455c-0.017,0.127-0.039,0.228-0.063,0.304c-0.032,0.077-0.059,0.134-0.102,0.16
		c-0.04,0.031-0.085,0.044-0.14,0.044c-0.081,0-0.209-0.053-0.384-0.163c-0.178-0.11-0.412-0.232-0.701-0.361
		c-0.294-0.131-0.638-0.245-1.044-0.358c-0.405-0.105-0.872-0.158-1.407-0.158c-0.571,0-1.088,0.097-1.548,0.29
		c-0.464,0.203-0.86,0.48-1.187,0.843c-0.326,0.366-0.579,0.795-0.757,1.31c-0.179,0.506-0.264,1.067-0.264,1.685
		c0,0.671,0.089,1.269,0.268,1.785c0.178,0.51,0.433,0.944,0.753,1.293c0.322,0.347,0.714,0.605,1.165,0.78
		c0.455,0.179,0.956,0.268,1.5,0.268c0.268,0,0.532-0.031,0.79-0.089c0.268-0.064,0.51-0.157,0.737-0.279v-2.751h-2.24
		c-0.105,0-0.19-0.067-0.253-0.208c-0.06-0.137-0.089-0.366-0.089-0.697c0-0.166,0.008-0.313,0.021-0.425
		c0.018-0.115,0.043-0.209,0.068-0.277c0.034-0.071,0.071-0.123,0.11-0.155c0.044-0.036,0.094-0.048,0.143-0.048h3.989
		c0.094,0,0.183,0.017,0.255,0.048c0.081,0.032,0.143,0.084,0.205,0.151c0.055,0.063,0.102,0.147,0.133,0.24
		c0.031,0.096,0.045,0.202,0.045,0.328v4.704c0,0.184-0.034,0.341-0.099,0.481c-0.062,0.141-0.19,0.241-0.391,0.322
		s-0.441,0.162-0.736,0.251c-0.294,0.086-0.595,0.155-0.91,0.218c-0.312,0.06-0.63,0.11-0.95,0.134
		c-0.318,0.036-0.638,0.048-0.96,0.048c-0.945,0-1.789-0.137-2.534-0.409c-0.745-0.266-1.377-0.659-1.897-1.176
		c-0.513-0.511-0.907-1.141-1.182-1.88c-0.274-0.74-0.409-1.575-0.409-2.516c0-0.965,0.145-1.835,0.438-2.602
		c0.289-0.772,0.705-1.423,1.241-1.963s1.178-0.953,1.94-1.238c0.757-0.284,1.598-0.429,2.526-0.429c0.513,0,0.977,0.034,1.4,0.106
		c0.415,0.069,0.786,0.155,1.097,0.26c0.312,0.097,0.576,0.208,0.777,0.318c0.213,0.121,0.353,0.22,0.434,0.309
		c0.084,0.085,0.144,0.206,0.179,0.361C57.283,30.295,57.3,30.524,57.3,30.831L57.3,30.831z M69.351,36.402
		c0,0.718-0.106,1.367-0.319,1.938c-0.212,0.574-0.521,1.055-0.939,1.449c-0.41,0.396-0.923,0.695-1.53,0.906
		c-0.606,0.208-1.306,0.311-2.097,0.311c-0.744,0-1.405-0.094-1.999-0.276c-0.588-0.188-1.087-0.468-1.496-0.846
		c-0.41-0.379-0.72-0.849-0.932-1.41c-0.219-0.563-0.327-1.219-0.327-1.974v-7.177c0-0.058,0.021-0.117,0.058-0.167
		c0.036-0.044,0.098-0.087,0.192-0.118c0.094-0.032,0.218-0.05,0.371-0.073c0.148-0.017,0.348-0.027,0.583-0.027
		c0.229,0,0.421,0.011,0.57,0.027c0.152,0.023,0.276,0.045,0.365,0.073c0.089,0.031,0.153,0.069,0.195,0.118
		c0.041,0.05,0.06,0.109,0.06,0.167v6.973c0,0.471,0.06,0.875,0.175,1.219c0.115,0.345,0.28,0.634,0.5,0.856
		c0.212,0.225,0.471,0.396,0.771,0.505c0.302,0.114,0.637,0.165,1.008,0.165c0.378,0,0.719-0.06,1.012-0.172
		c0.3-0.115,0.553-0.283,0.764-0.504c0.203-0.224,0.365-0.498,0.48-0.821c0.112-0.327,0.165-0.697,0.165-1.109v-7.111
		c0-0.058,0.023-0.117,0.053-0.167c0.037-0.044,0.105-0.087,0.194-0.118c0.09-0.032,0.217-0.05,0.37-0.073
		c0.155-0.017,0.347-0.027,0.578-0.027c0.234,0,0.421,0.011,0.571,0.027c0.151,0.023,0.272,0.045,0.361,0.073
		c0.095,0.031,0.155,0.069,0.192,0.118c0.038,0.05,0.053,0.109,0.053,0.167v7.078H69.351z M63.729,26.8
		c0,0.425-0.084,0.721-0.251,0.894c-0.165,0.17-0.483,0.253-0.947,0.253c-0.468,0-0.783-0.079-0.945-0.245
		c-0.165-0.166-0.245-0.45-0.245-0.864c0-0.433,0.08-0.731,0.253-0.899c0.168-0.164,0.486-0.247,0.945-0.247
		c0.473,0,0.791,0.081,0.953,0.24C63.647,26.091,63.729,26.378,63.729,26.8L63.729,26.8z M67.709,26.8
		c0,0.425-0.085,0.721-0.255,0.894c-0.171,0.17-0.489,0.253-0.952,0.253c-0.469,0-0.782-0.079-0.944-0.245
		c-0.166-0.166-0.242-0.45-0.242-0.864c0-0.433,0.084-0.731,0.251-0.899c0.165-0.164,0.484-0.247,0.952-0.247
		c0.464,0,0.782,0.081,0.944,0.24C67.628,26.091,67.709,26.378,67.709,26.8L67.709,26.8z M85.676,40.471
		c0,0.06-0.017,0.117-0.052,0.166c-0.034,0.045-0.098,0.085-0.183,0.119c-0.089,0.03-0.208,0.052-0.354,0.072
		c-0.142,0.019-0.329,0.025-0.557,0.025c-0.221,0-0.404-0.007-0.553-0.025c-0.143-0.021-0.26-0.047-0.349-0.072
		c-0.085-0.034-0.142-0.072-0.179-0.119c-0.038-0.049-0.053-0.106-0.053-0.166v-9.609h-0.021l-3.406,9.6
		c-0.025,0.078-0.062,0.142-0.118,0.199c-0.055,0.05-0.131,0.094-0.229,0.126c-0.094,0.029-0.217,0.046-0.357,0.058
		c-0.146,0.008-0.32,0.01-0.531,0.01c-0.208,0-0.382-0.004-0.525-0.021c-0.144-0.017-0.268-0.042-0.361-0.074
		c-0.093-0.031-0.17-0.074-0.227-0.121c-0.05-0.049-0.09-0.11-0.107-0.176l-3.291-9.6h-0.021v9.609c0,0.06-0.013,0.117-0.046,0.166
		c-0.034,0.045-0.099,0.085-0.188,0.119c-0.094,0.03-0.213,0.052-0.357,0.072c-0.14,0.019-0.327,0.025-0.548,0.025
		c-0.222,0-0.404-0.007-0.553-0.025c-0.146-0.021-0.265-0.047-0.354-0.072c-0.085-0.034-0.148-0.072-0.184-0.119
		c-0.033-0.049-0.051-0.106-0.051-0.166V29.953c0-0.313,0.086-0.549,0.247-0.715c0.166-0.165,0.383-0.244,0.664-0.244h1.57
		c0.277,0,0.521,0.021,0.723,0.069c0.2,0.045,0.375,0.122,0.518,0.229c0.145,0.106,0.268,0.242,0.365,0.421
		c0.098,0.172,0.183,0.387,0.255,0.642l2.543,7.033h0.041l2.632-7.02c0.081-0.256,0.163-0.468,0.258-0.647
		c0.099-0.174,0.206-0.318,0.331-0.425c0.126-0.11,0.272-0.188,0.442-0.232c0.17-0.048,0.37-0.069,0.595-0.069h1.616
		c0.166,0,0.306,0.021,0.425,0.066c0.12,0.039,0.218,0.102,0.294,0.187c0.077,0.079,0.132,0.179,0.175,0.3
		c0.038,0.117,0.058,0.255,0.058,0.408v10.516H85.676z M97.871,36.402c0,0.718-0.106,1.367-0.323,1.938
		c-0.208,0.574-0.523,1.055-0.936,1.449c-0.413,0.396-0.923,0.695-1.531,0.906c-0.607,0.208-1.309,0.311-2.096,0.311
		c-0.745,0-1.407-0.094-1.999-0.276c-0.591-0.188-1.089-0.468-1.499-0.846c-0.41-0.379-0.718-0.849-0.936-1.41
		c-0.215-0.563-0.32-1.219-0.32-1.974v-7.177c0-0.058,0.021-0.117,0.053-0.167c0.036-0.044,0.103-0.087,0.195-0.118
		c0.094-0.032,0.219-0.05,0.37-0.073c0.149-0.017,0.345-0.027,0.585-0.027c0.225,0,0.418,0.011,0.57,0.027
		c0.152,0.023,0.271,0.045,0.361,0.073c0.093,0.031,0.157,0.069,0.199,0.118c0.038,0.05,0.06,0.109,0.06,0.167v6.973
		c0,0.471,0.055,0.875,0.174,1.219c0.11,0.343,0.277,0.634,0.498,0.856c0.213,0.225,0.473,0.396,0.773,0.505
		c0.302,0.114,0.639,0.165,1.009,0.165c0.378,0,0.714-0.06,1.012-0.172c0.298-0.115,0.553-0.283,0.761-0.504
		c0.205-0.224,0.365-0.498,0.477-0.821c0.117-0.327,0.17-0.697,0.17-1.109v-7.111c0-0.058,0.018-0.117,0.056-0.167
		c0.033-0.044,0.103-0.087,0.191-0.118c0.089-0.032,0.217-0.05,0.37-0.073c0.157-0.017,0.349-0.027,0.578-0.027
		c0.233,0,0.421,0.011,0.572,0.027c0.146,0.023,0.271,0.045,0.36,0.073c0.09,0.031,0.155,0.069,0.191,0.118
		c0.036,0.05,0.054,0.109,0.054,0.167V36.402L97.871,36.402z M92.25,26.8c0,0.425-0.086,0.721-0.251,0.894
		c-0.167,0.17-0.485,0.253-0.949,0.253c-0.469,0-0.786-0.079-0.949-0.245c-0.167-0.166-0.243-0.45-0.243-0.864
		c0-0.433,0.081-0.731,0.251-0.899c0.17-0.164,0.491-0.247,0.95-0.247c0.472,0,0.785,0.081,0.948,0.24
		C92.169,26.091,92.25,26.378,92.25,26.8L92.25,26.8z M96.226,26.8c0,0.425-0.081,0.721-0.256,0.894
		c-0.163,0.17-0.484,0.253-0.952,0.253s-0.778-0.079-0.943-0.245c-0.158-0.166-0.239-0.45-0.239-0.864
		c0-0.433,0.086-0.731,0.251-0.899c0.167-0.164,0.485-0.247,0.953-0.247c0.464,0,0.778,0.081,0.945,0.24
		C96.145,26.091,96.226,26.378,96.226,26.8L96.226,26.8z M104.224,40.896l0.228,0.497c0.117,0.239,0.198,0.442,0.247,0.619
		c0.053,0.179,0.074,0.347,0.074,0.512c0,0.281-0.049,0.52-0.151,0.72c-0.102,0.203-0.239,0.365-0.418,0.495
		c-0.18,0.129-0.385,0.223-0.621,0.289c-0.238,0.063-0.496,0.094-0.772,0.094c-0.268,0-0.512-0.02-0.739-0.054
		c-0.231-0.036-0.421-0.076-0.571-0.121c-0.147-0.041-0.254-0.079-0.317-0.108c-0.063-0.033-0.11-0.068-0.139-0.119
		c-0.029-0.048-0.044-0.114-0.058-0.187c-0.013-0.074-0.022-0.179-0.022-0.317c0-0.24,0.022-0.41,0.067-0.504
		c0.048-0.098,0.13-0.14,0.251-0.14h1.059c0.18,0,0.307-0.038,0.4-0.115c0.085-0.074,0.127-0.181,0.127-0.314
		c0-0.072-0.013-0.158-0.044-0.251c-0.026-0.085-0.063-0.183-0.107-0.28l-0.289-0.647c-0.254-0.019-0.495-0.053-0.727-0.105
		c-0.234-0.056-0.482-0.124-0.733-0.218c-0.249-0.098-0.464-0.195-0.638-0.297c-0.173-0.098-0.298-0.191-0.379-0.268
		c-0.081-0.081-0.136-0.2-0.17-0.349c-0.031-0.147-0.049-0.36-0.049-0.639c0-0.191,0.009-0.344,0.023-0.473
		c0.013-0.131,0.03-0.232,0.057-0.313c0.026-0.079,0.063-0.137,0.107-0.168c0.045-0.037,0.103-0.05,0.165-0.05
		c0.081,0,0.205,0.05,0.357,0.153c0.156,0.098,0.357,0.213,0.598,0.332c0.242,0.119,0.536,0.229,0.876,0.332
		c0.336,0.102,0.727,0.153,1.174,0.153c0.293,0,0.553-0.038,0.782-0.104c0.233-0.07,0.43-0.168,0.589-0.296
		c0.161-0.128,0.287-0.289,0.372-0.472c0.083-0.191,0.132-0.396,0.132-0.625c0-0.269-0.072-0.498-0.221-0.689
		c-0.146-0.193-0.337-0.361-0.576-0.51c-0.228-0.146-0.5-0.289-0.8-0.417c-0.293-0.132-0.602-0.268-0.923-0.417
		c-0.316-0.14-0.625-0.309-0.919-0.495c-0.299-0.183-0.571-0.411-0.799-0.67c-0.236-0.253-0.428-0.562-0.576-0.914
		c-0.147-0.353-0.217-0.771-0.217-1.268c0-0.565,0.106-1.059,0.317-1.49c0.208-0.423,0.488-0.78,0.846-1.061
		c0.356-0.287,0.771-0.498,1.254-0.639c0.487-0.14,0.999-0.21,1.539-0.21c0.277,0,0.558,0.023,0.839,0.066
		c0.28,0.04,0.543,0.098,0.786,0.17c0.24,0.072,0.455,0.157,0.646,0.246c0.187,0.094,0.313,0.168,0.374,0.229
		c0.058,0.056,0.099,0.11,0.121,0.148c0.025,0.048,0.042,0.103,0.057,0.175c0.014,0.068,0.024,0.15,0.033,0.265
		c0.004,0.105,0.008,0.232,0.008,0.395c0,0.17-0.004,0.321-0.013,0.442c-0.01,0.124-0.028,0.226-0.047,0.304
		c-0.021,0.081-0.051,0.139-0.089,0.175c-0.043,0.033-0.094,0.053-0.162,0.053c-0.067,0-0.17-0.046-0.318-0.13
		c-0.144-0.084-0.321-0.179-0.54-0.28c-0.213-0.098-0.46-0.188-0.74-0.268c-0.281-0.085-0.582-0.126-0.919-0.126
		c-0.264,0-0.488,0.03-0.688,0.094c-0.191,0.064-0.351,0.153-0.485,0.265c-0.127,0.112-0.227,0.246-0.292,0.407
		c-0.064,0.162-0.094,0.324-0.094,0.502c0,0.26,0.072,0.489,0.213,0.679c0.144,0.193,0.335,0.36,0.579,0.508
		c0.236,0.148,0.509,0.291,0.817,0.421c0.302,0.128,0.614,0.266,0.931,0.414c0.317,0.144,0.63,0.313,0.934,0.495
		c0.307,0.188,0.578,0.411,0.816,0.664c0.236,0.259,0.428,0.565,0.574,0.914c0.149,0.354,0.221,0.766,0.221,1.238
		c0,0.609-0.123,1.162-0.361,1.666c-0.242,0.494-0.6,0.91-1.071,1.25C105.546,40.519,104.951,40.756,104.224,40.896L104.224,40.896z
		 M112.954,37.507c0-0.34,0.051-0.663,0.148-0.965c0.103-0.298,0.249-0.585,0.451-0.851c0.204-0.268,0.45-0.522,0.749-0.767
		c0.292-0.243,0.633-0.483,1.021-0.713c-0.218-0.281-0.409-0.54-0.57-0.793c-0.161-0.241-0.293-0.477-0.402-0.704
		c-0.105-0.226-0.187-0.438-0.236-0.646c-0.051-0.201-0.076-0.404-0.076-0.604c0-0.423,0.073-0.824,0.226-1.198
		c0.153-0.381,0.391-0.702,0.715-0.974c0.318-0.276,0.731-0.491,1.229-0.651c0.495-0.161,1.098-0.242,1.794-0.242
		c0.639,0,1.195,0.06,1.654,0.183c0.459,0.121,0.839,0.294,1.134,0.516c0.3,0.223,0.522,0.497,0.669,0.82
		c0.144,0.325,0.218,0.69,0.218,1.102c0,0.361-0.06,0.696-0.183,1.012c-0.128,0.314-0.319,0.607-0.57,0.885
		c-0.255,0.28-0.565,0.549-0.939,0.808c-0.381,0.26-0.827,0.519-1.327,0.78c0.166,0.193,0.349,0.394,0.553,0.597
		c0.204,0.21,0.413,0.421,0.63,0.631c0.216,0.212,0.434,0.418,0.655,0.624c0.221,0.213,0.429,0.399,0.637,0.579
		c0.081-0.124,0.157-0.264,0.222-0.421c0.064-0.158,0.125-0.328,0.17-0.502c0.047-0.18,0.081-0.355,0.11-0.54
		c0.032-0.183,0.047-0.361,0.047-0.541v-0.284c0-0.066,0.009-0.127,0.034-0.17c0.021-0.048,0.072-0.089,0.148-0.124
		c0.077-0.027,0.188-0.048,0.327-0.067c0.144-0.017,0.328-0.021,0.554-0.021c0.208,0,0.387,0.005,0.531,0.013
		c0.132,0.009,0.246,0.032,0.325,0.058c0.086,0.032,0.141,0.07,0.175,0.126c0.036,0.05,0.049,0.119,0.049,0.196v0.294
		c0,0.296-0.025,0.585-0.066,0.887c-0.045,0.298-0.106,0.591-0.183,0.877c-0.085,0.28-0.191,0.552-0.313,0.812
		c-0.128,0.255-0.26,0.497-0.408,0.723c0.213,0.166,0.396,0.302,0.553,0.41c0.153,0.109,0.289,0.195,0.399,0.258
		c0.106,0.063,0.2,0.107,0.272,0.127c0.072,0.025,0.139,0.043,0.184,0.043c0.067,0,0.134,0,0.187,0c0.06,0,0.108,0.021,0.141,0.063
		c0.038,0.043,0.063,0.119,0.08,0.226c0.021,0.11,0.03,0.272,0.03,0.485c0,0.229-0.005,0.408-0.013,0.535
		c-0.009,0.127-0.025,0.221-0.047,0.282c-0.017,0.064-0.058,0.113-0.11,0.153c-0.05,0.036-0.137,0.074-0.26,0.109
		c-0.119,0.033-0.269,0.046-0.436,0.046c-0.134,0-0.272-0.013-0.417-0.046c-0.138-0.035-0.306-0.096-0.493-0.193
		c-0.194-0.094-0.41-0.22-0.661-0.375s-0.54-0.353-0.861-0.598c-0.289,0.195-0.585,0.37-0.889,0.527
		c-0.306,0.153-0.619,0.28-0.955,0.388c-0.331,0.102-0.676,0.182-1.024,0.237c-0.353,0.052-0.728,0.081-1.132,0.081
		c-0.395,0-0.777-0.034-1.155-0.091c-0.38-0.063-0.731-0.155-1.068-0.279c-0.325-0.123-0.629-0.28-0.905-0.472
		c-0.272-0.187-0.505-0.408-0.706-0.667c-0.191-0.261-0.338-0.556-0.455-0.89C113.01,38.276,112.954,37.911,112.954,37.507
		L112.954,37.507z M116.449,31.342c0,0.127,0.018,0.261,0.064,0.399c0.038,0.136,0.098,0.278,0.178,0.43
		c0.073,0.146,0.171,0.309,0.286,0.476c0.114,0.166,0.246,0.35,0.391,0.545c0.36-0.195,0.661-0.379,0.901-0.545
		c0.238-0.162,0.43-0.318,0.58-0.476c0.143-0.157,0.244-0.313,0.311-0.471c0.06-0.155,0.089-0.313,0.089-0.478
		c0-0.145-0.029-0.283-0.078-0.409c-0.056-0.129-0.14-0.237-0.255-0.34c-0.121-0.093-0.26-0.165-0.43-0.223
		c-0.17-0.054-0.37-0.079-0.604-0.079c-0.255,0-0.473,0.025-0.646,0.085c-0.188,0.06-0.332,0.141-0.447,0.246
		c-0.118,0.104-0.199,0.234-0.259,0.377C116.476,31.024,116.449,31.18,116.449,31.342L116.449,31.342z M115.438,37.378
		c0,0.268,0.051,0.504,0.148,0.723c0.094,0.224,0.234,0.415,0.417,0.572c0.184,0.154,0.408,0.28,0.681,0.367
		c0.268,0.09,0.583,0.134,0.936,0.134c0.179,0,0.357-0.013,0.54-0.047c0.179-0.033,0.357-0.085,0.531-0.145
		c0.166-0.051,0.336-0.125,0.489-0.206c0.152-0.083,0.299-0.172,0.433-0.272c-0.275-0.218-0.552-0.448-0.828-0.698
		c-0.272-0.246-0.544-0.494-0.808-0.741c-0.26-0.251-0.511-0.499-0.753-0.746c-0.238-0.244-0.456-0.48-0.638-0.699
		c-0.213,0.138-0.392,0.271-0.531,0.415c-0.146,0.142-0.26,0.289-0.354,0.436c-0.094,0.148-0.157,0.298-0.2,0.448
		C115.459,37.069,115.438,37.225,115.438,37.378L115.438,37.378z"/>
	<path id="path10" fill="#014026" d="M138.723,29.979c0,0.177-0.003,0.327-0.021,0.452c-0.013,0.129-0.034,0.228-0.068,0.303
		c-0.029,0.077-0.067,0.134-0.115,0.166c-0.045,0.04-0.098,0.055-0.148,0.055h-2.951v9.517c0,0.06-0.017,0.117-0.058,0.166
		c-0.044,0.045-0.108,0.085-0.197,0.119c-0.09,0.03-0.217,0.052-0.37,0.072c-0.155,0.019-0.354,0.025-0.578,0.025
		c-0.234,0-0.426-0.007-0.578-0.025c-0.162-0.021-0.285-0.047-0.375-0.072c-0.089-0.034-0.153-0.072-0.194-0.119
		c-0.045-0.049-0.06-0.106-0.06-0.166v-9.517h-2.952c-0.058,0-0.114-0.017-0.153-0.055c-0.042-0.034-0.078-0.089-0.11-0.166
		c-0.025-0.075-0.049-0.174-0.066-0.303c-0.019-0.125-0.026-0.275-0.026-0.452c0-0.184,0.008-0.334,0.026-0.464
		c0.018-0.129,0.043-0.231,0.066-0.308c0.032-0.077,0.068-0.128,0.11-0.162c0.041-0.038,0.096-0.051,0.153-0.051h8.313
		c0.051,0,0.103,0.017,0.148,0.051s0.086,0.085,0.115,0.162c0.034,0.071,0.056,0.179,0.068,0.308
		C138.72,29.64,138.723,29.795,138.723,29.979L138.723,29.979z M147.113,39.854c0,0.179-0.005,0.323-0.021,0.446
		c-0.013,0.119-0.038,0.218-0.067,0.287c-0.03,0.077-0.069,0.125-0.115,0.16c-0.043,0.038-0.098,0.051-0.149,0.051h-5.923
		c-0.2,0-0.365-0.06-0.502-0.179c-0.136-0.12-0.204-0.313-0.204-0.581V29.747c0-0.266,0.068-0.459,0.204-0.579
		c0.138-0.119,0.304-0.179,0.502-0.179h5.894c0.055,0,0.105,0.018,0.148,0.048c0.038,0.031,0.076,0.084,0.11,0.157
		c0.025,0.08,0.052,0.174,0.064,0.295c0.017,0.121,0.025,0.271,0.025,0.453c0,0.175-0.009,0.318-0.025,0.434
		c-0.013,0.121-0.034,0.22-0.064,0.289c-0.034,0.072-0.072,0.13-0.11,0.162c-0.043,0.036-0.094,0.049-0.148,0.049h-4.21v2.875h3.546
		c0.06,0,0.106,0.019,0.149,0.048c0.049,0.036,0.085,0.086,0.115,0.158c0.033,0.069,0.055,0.16,0.072,0.282
		c0.012,0.121,0.021,0.262,0.021,0.43c0,0.179-0.009,0.32-0.021,0.438c-0.018,0.117-0.041,0.208-0.072,0.279
		c-0.03,0.072-0.064,0.12-0.115,0.148c-0.045,0.031-0.09,0.046-0.149,0.046h-3.546v3.326h4.239c0.054,0,0.106,0.016,0.147,0.047
		c0.044,0.034,0.084,0.087,0.117,0.163c0.029,0.071,0.053,0.169,0.065,0.288C147.108,39.531,147.113,39.68,147.113,39.854
		L147.113,39.854z M156.064,37.256c0,0.621-0.119,1.166-0.349,1.633c-0.234,0.469-0.545,0.861-0.937,1.174
		c-0.403,0.313-0.862,0.549-1.394,0.707c-0.528,0.156-1.093,0.235-1.697,0.235c-0.408,0-0.786-0.036-1.136-0.104
		c-0.349-0.069-0.659-0.147-0.927-0.247c-0.268-0.095-0.488-0.193-0.672-0.298c-0.178-0.106-0.306-0.2-0.387-0.277
		c-0.08-0.08-0.138-0.199-0.17-0.346c-0.034-0.149-0.047-0.361-0.047-0.64c0-0.191,0.004-0.345,0.018-0.473
		c0.012-0.132,0.029-0.234,0.06-0.314c0.024-0.078,0.063-0.136,0.105-0.168c0.047-0.036,0.103-0.049,0.162-0.049
		c0.084,0,0.203,0.049,0.361,0.153c0.157,0.098,0.356,0.213,0.6,0.332c0.239,0.118,0.535,0.229,0.873,0.331
		c0.337,0.102,0.729,0.152,1.174,0.152c0.289,0,0.554-0.038,0.781-0.104c0.233-0.07,0.429-0.168,0.591-0.296
		c0.162-0.127,0.284-0.287,0.374-0.472c0.08-0.187,0.123-0.396,0.123-0.625c0-0.269-0.069-0.498-0.217-0.689
		c-0.145-0.193-0.336-0.36-0.569-0.51c-0.239-0.145-0.507-0.289-0.804-0.417c-0.299-0.127-0.604-0.268-0.919-0.416
		c-0.319-0.141-0.63-0.309-0.922-0.495c-0.303-0.184-0.571-0.406-0.801-0.667c-0.237-0.256-0.425-0.561-0.573-0.918
		c-0.145-0.353-0.224-0.771-0.224-1.267c0-0.565,0.108-1.06,0.316-1.49c0.211-0.423,0.492-0.781,0.849-1.062
		c0.356-0.287,0.772-0.497,1.259-0.638c0.48-0.141,0.991-0.211,1.535-0.211c0.28,0,0.558,0.024,0.838,0.066
		c0.281,0.04,0.54,0.098,0.784,0.17c0.243,0.072,0.455,0.157,0.649,0.247c0.187,0.093,0.312,0.167,0.373,0.229
		c0.058,0.055,0.098,0.11,0.122,0.148c0.025,0.047,0.042,0.103,0.057,0.175c0.013,0.068,0.026,0.15,0.032,0.263
		c0.004,0.107,0.009,0.234,0.009,0.396c0,0.17-0.005,0.323-0.015,0.442c-0.009,0.122-0.026,0.225-0.045,0.304
		c-0.021,0.081-0.056,0.139-0.09,0.174c-0.044,0.036-0.094,0.054-0.161,0.054c-0.064,0-0.175-0.047-0.319-0.13
		c-0.146-0.085-0.321-0.179-0.539-0.281c-0.213-0.097-0.461-0.189-0.741-0.268c-0.28-0.085-0.582-0.125-0.922-0.125
		c-0.26,0-0.489,0.029-0.685,0.093c-0.191,0.064-0.354,0.153-0.485,0.264c-0.132,0.113-0.228,0.248-0.293,0.408
		c-0.064,0.162-0.094,0.328-0.094,0.502c0,0.26,0.067,0.49,0.213,0.679c0.144,0.193,0.336,0.363,0.573,0.512
		c0.243,0.146,0.515,0.287,0.82,0.417s0.613,0.272,0.935,0.415c0.316,0.142,0.629,0.313,0.933,0.495
		c0.307,0.187,0.578,0.411,0.817,0.667c0.236,0.261,0.428,0.562,0.573,0.915C155.992,36.374,156.064,36.784,156.064,37.256
		L156.064,37.256z M166.423,37.256c0,0.419-0.06,0.8-0.174,1.143c-0.119,0.34-0.277,0.642-0.477,0.905
		c-0.204,0.26-0.446,0.486-0.731,0.675c-0.281,0.191-0.592,0.34-0.932,0.467c-0.34,0.121-0.705,0.21-1.093,0.268
		c-0.387,0.058-0.813,0.086-1.283,0.086h-3.139c-0.2,0-0.366-0.058-0.502-0.179c-0.137-0.117-0.208-0.313-0.208-0.579v-10.29
		c0-0.268,0.071-0.463,0.208-0.583c0.139-0.116,0.304-0.174,0.502-0.174h2.959c0.723,0,1.329,0.058,1.833,0.183
		c0.502,0.119,0.923,0.307,1.263,0.549c0.35,0.246,0.612,0.562,0.787,0.938c0.183,0.377,0.276,0.816,0.276,1.329
		c0,0.284-0.04,0.553-0.113,0.803c-0.065,0.254-0.178,0.485-0.316,0.689c-0.139,0.21-0.313,0.387-0.514,0.547
		c-0.201,0.155-0.435,0.287-0.693,0.382c0.332,0.063,0.646,0.168,0.927,0.317c0.28,0.153,0.531,0.353,0.735,0.591
		c0.215,0.242,0.381,0.525,0.502,0.847C166.359,36.493,166.423,36.854,166.423,37.256L166.423,37.256z M163.318,32.281
		c0-0.238-0.033-0.451-0.105-0.639c-0.073-0.187-0.179-0.346-0.327-0.471c-0.146-0.126-0.328-0.22-0.55-0.29
		c-0.225-0.063-0.519-0.098-0.889-0.098h-1.207v3.063h1.335c0.345,0,0.621-0.04,0.829-0.125c0.204-0.081,0.374-0.191,0.511-0.336
		c0.136-0.143,0.235-0.311,0.306-0.498C163.289,32.695,163.318,32.494,163.318,32.281L163.318,32.281z M163.939,37.346
		c0-0.276-0.047-0.519-0.141-0.74c-0.089-0.215-0.221-0.395-0.399-0.54c-0.174-0.144-0.399-0.259-0.672-0.34
		c-0.272-0.076-0.629-0.119-1.067-0.119h-1.42v3.359h1.73c0.336,0,0.612-0.032,0.846-0.102c0.228-0.068,0.418-0.175,0.59-0.315
		c0.172-0.138,0.3-0.302,0.397-0.509C163.893,37.839,163.939,37.604,163.939,37.346L163.939,37.346z M170.765,40.471
		c0,0.06-0.017,0.117-0.06,0.166c-0.038,0.045-0.106,0.085-0.195,0.119c-0.09,0.03-0.213,0.052-0.366,0.072
		c-0.148,0.019-0.345,0.025-0.583,0.025c-0.229,0-0.424-0.007-0.577-0.025c-0.157-0.021-0.281-0.047-0.375-0.072
		c-0.089-0.034-0.152-0.072-0.198-0.119c-0.038-0.049-0.057-0.106-0.057-0.166V29.321c0-0.06,0.021-0.119,0.057-0.165
		c0.046-0.048,0.109-0.088,0.207-0.119c0.094-0.03,0.217-0.052,0.366-0.072c0.15-0.018,0.348-0.028,0.577-0.028
		c0.238,0,0.435,0.011,0.583,0.028c0.153,0.021,0.276,0.042,0.366,0.072c0.089,0.031,0.157,0.071,0.195,0.119
		c0.045,0.046,0.06,0.105,0.06,0.165V40.471L170.765,40.471z M170.841,26.795c0,0.435-0.093,0.734-0.268,0.908
		c-0.184,0.177-0.514,0.264-0.999,0.264s-0.817-0.085-0.991-0.252c-0.175-0.167-0.264-0.458-0.264-0.873
		c0-0.439,0.089-0.746,0.272-0.917c0.183-0.172,0.515-0.254,0.999-0.254c0.485,0,0.816,0.08,0.99,0.245
		C170.752,26.079,170.841,26.373,170.841,26.795L170.841,26.795z M182.548,40.471c0,0.06-0.021,0.117-0.06,0.166
		c-0.043,0.045-0.105,0.085-0.2,0.119c-0.089,0.03-0.208,0.052-0.361,0.072c-0.148,0.019-0.345,0.025-0.569,0.025
		c-0.234,0-0.435-0.007-0.591-0.025c-0.153-0.021-0.272-0.047-0.362-0.072c-0.089-0.034-0.146-0.072-0.191-0.119
		c-0.038-0.049-0.056-0.106-0.056-0.166V35.7h-4.428v4.771c0,0.06-0.02,0.117-0.056,0.166c-0.034,0.045-0.098,0.085-0.191,0.119
		c-0.089,0.03-0.209,0.052-0.361,0.072c-0.146,0.019-0.347,0.025-0.579,0.025c-0.233,0-0.425-0.007-0.579-0.025
		c-0.162-0.021-0.281-0.047-0.37-0.072c-0.094-0.034-0.157-0.072-0.196-0.119c-0.038-0.049-0.06-0.106-0.06-0.166V29.321
		c0-0.06,0.021-0.119,0.06-0.165c0.039-0.048,0.103-0.088,0.196-0.119c0.089-0.03,0.208-0.052,0.37-0.072
		c0.153-0.018,0.345-0.028,0.579-0.028c0.228,0,0.428,0.011,0.579,0.028c0.152,0.021,0.272,0.046,0.361,0.072
		c0.094,0.031,0.157,0.071,0.191,0.119c0.04,0.046,0.056,0.105,0.056,0.165v4.34h4.428v-4.34c0-0.06,0.02-0.119,0.056-0.165
		c0.045-0.048,0.103-0.088,0.191-0.119c0.09-0.03,0.209-0.052,0.362-0.072c0.156-0.018,0.356-0.028,0.591-0.028
		c0.225,0,0.421,0.011,0.569,0.028c0.153,0.021,0.272,0.042,0.361,0.072c0.095,0.031,0.157,0.071,0.2,0.119
		c0.04,0.046,0.06,0.105,0.06,0.165V40.471z"/>
</g>
</svg>
