<?xml version="1.0" encoding="utf-8"?>
<!-- Generator: Adobe Illustrator 16.0.0, SVG Export Plug-In . SVG Version: 6.00 Build 0)  -->
<!DOCTYPE svg PUBLIC "-//W3C//DTD SVG 1.1//EN" "http://www.w3.org/Graphics/SVG/1.1/DTD/svg11.dtd">
<svg version="1.1" id="Layer_1" xmlns="http://www.w3.org/2000/svg" xmlns:xlink="http://www.w3.org/1999/xlink" x="0px" y="0px"
	 width="200px" height="40px" viewBox="0 0 200 40" enable-background="new 0 0 200 40" xml:space="preserve">
<g>
	<g id="g5124">
		<path id="rect2987" fill="#67BD55" d="M10.188,3.25h25.125c2.313,0,4.188,1.875,4.188,4.188v25.125
			c0,2.313-1.875,4.188-4.188,4.188H10.188C7.875,36.75,6,34.875,6,32.563V7.438C6,5.125,7.875,3.25,10.188,3.25z"/>
		<path id="WhatsApp_2_" fill="#FFFFFF" d="M35.836,19.663c0,7.041-5.752,12.748-12.848,12.748c-2.252,0-4.369-0.575-6.21-1.586
			l-7.113,2.261l2.318-6.841c-1.169-1.921-1.843-4.174-1.843-6.582c0-7.042,5.752-12.749,12.848-12.749S35.836,12.622,35.836,19.663
			z M22.988,8.944c-5.957,0-10.802,4.809-10.802,10.719c0,2.346,0.764,4.518,2.057,6.284l-1.349,3.98l4.151-1.32
			c1.706,1.12,3.749,1.773,5.942,1.773c5.956,0,10.802-4.809,10.802-10.718C33.79,13.753,28.944,8.944,22.988,8.944L22.988,8.944z
			 M29.476,22.599c-0.08-0.129-0.289-0.208-0.604-0.364c-0.315-0.156-1.864-0.912-2.152-1.016c-0.289-0.104-0.5-0.157-0.709,0.155
			c-0.21,0.313-0.813,1.017-0.998,1.225c-0.184,0.209-0.367,0.235-0.682,0.079s-1.33-0.486-2.533-1.551
			c-0.936-0.828-1.568-1.851-1.752-2.164c-0.184-0.313-0.02-0.482,0.138-0.637c0.142-0.141,0.315-0.365,0.473-0.547
			c0.158-0.183,0.21-0.313,0.314-0.521c0.105-0.208,0.053-0.391-0.026-0.547c-0.079-0.156-0.709-1.694-0.972-2.32
			c-0.262-0.625-0.523-0.521-0.708-0.521c-0.184,0-0.394-0.026-0.604-0.026c-0.21,0-0.551,0.079-0.84,0.391
			c-0.289,0.313-1.102,1.068-1.102,2.606c0,1.538,1.128,3.024,1.286,3.232c0.157,0.207,2.178,3.466,5.38,4.718
			c3.203,1.251,3.203,0.834,3.78,0.781c0.577-0.052,1.863-0.756,2.125-1.485C29.554,23.354,29.554,22.729,29.476,22.599
			L29.476,22.599z"/>
	</g>
	<text transform="matrix(1 0 0 1 42.499 27.4756)" font-family="'MyriadPro-Regular'" font-size="22.32"> 0 546 925 22 44</text>
</g>
</svg>
