<?xml version="1.0" encoding="utf-8"?>
<!-- Generator: Adobe Illustrator 16.0.0, SVG Export Plug-In . SVG Version: 6.00 Build 0)  -->
<!DOCTYPE svg PUBLIC "-//W3C//DTD SVG 1.1//EN" "http://www.w3.org/Graphics/SVG/1.1/DTD/svg11.dtd">
<svg version="1.1" id="Capa_1" xmlns="http://www.w3.org/2000/svg" xmlns:xlink="http://www.w3.org/1999/xlink" x="0px" y="0px"
	 width="54px" height="54px" viewBox="229 229 54 54" enable-background="new 229 229 54 54" xml:space="preserve">
<path fill="#C73295" d="M247.641,263.783c1.027,0.443,2.098,0.805,3.205,1.072l-2.612,2.613c-1.043-0.347-2.054-0.766-3.027-1.25
	L247.641,263.783z M237.801,261.231c0,0.266,0.104,0.517,0.292,0.704l3.467,3.468c0.376,0.376,1.033,0.376,1.409,0l3.467-3.468
	c0.188-0.188,0.292-0.438,0.292-0.704s-0.104-0.516-0.292-0.705l-3.467-3.467c-0.188-0.188-0.438-0.292-0.705-0.292
	s-0.516,0.104-0.705,0.292l-3.467,3.467C237.905,260.715,237.801,260.965,237.801,261.231z M276.644,244.833
	c0,4.263-1.296,8.326-3.655,11.731l2.325,2.324c2.945-4.036,4.566-8.922,4.566-14.056c0-5.514-1.925-10.893-5.419-15.148
	c-0.567-0.691-1.588-0.791-2.278-0.224c-0.691,0.567-0.791,1.587-0.224,2.278C274.979,235.417,276.644,240.067,276.644,244.833z
	 M264.3,263.731c-1.029,0.451-2.095,0.817-3.184,1.094l2.601,2.601c1.031-0.351,2.038-0.772,3.014-1.263L264.3,263.731z
	 M238.948,256.62c-1.462-2.128-2.53-4.547-3.094-7.151c-1.377-6.355,0.146-12.818,4.18-17.73c0.567-0.69,0.467-1.71-0.224-2.278
	s-1.71-0.468-2.278,0.224c-4.666,5.681-6.43,13.142-4.842,20.47c0.699,3.222,2.062,6.201,3.937,8.786L238.948,256.62z
	 M273.899,260.526l-3.467-3.467c-0.188-0.188-0.438-0.292-0.705-0.292c-0.266,0-0.516,0.104-0.704,0.292l-3.467,3.467
	c-0.188,0.188-0.293,0.438-0.293,0.705c0,0.266,0.104,0.517,0.293,0.704l3.467,3.468c0.376,0.376,1.033,0.376,1.409,0l3.467-3.468
	C274.289,261.547,274.289,260.915,273.899,260.526z M265.576,273.746l-8.875,8.875c-0.376,0.377-1.033,0.377-1.409,0l-8.875-8.875
	c-0.188-0.188-0.292-0.438-0.292-0.704c0-0.267,0.104-0.517,0.292-0.705l8.875-8.875c0.188-0.188,0.439-0.291,0.704-0.291
	c0.267,0,0.518,0.103,0.705,0.291l8.875,8.875C265.965,272.726,265.965,273.357,265.576,273.746z M260.237,271.469l-2.667-2.667
	c-0.421-0.421-0.979-0.652-1.574-0.652c-0.594,0-1.152,0.231-1.572,0.652l-2.667,2.667c-0.867,0.867-0.867,2.278,0,3.146
	l2.667,2.667c0.42,0.419,0.979,0.651,1.572,0.651c0.595,0,1.153-0.232,1.574-0.651l2.667-2.667
	C261.104,273.747,261.104,272.336,260.237,271.469z M256.044,270.327c-0.006-0.005-0.02-0.02-0.048-0.02
	c-0.027,0-0.041,0.015-0.047,0.02l-2.667,2.667c-0.026,0.025-0.026,0.068,0,0.095l2.667,2.666c0.011,0.012,0.084,0.012,0.095,0
	l2.666-2.666c0.027-0.026,0.027-0.069,0-0.095L256.044,270.327z M248.511,235.055c-0.913,0-1.652,0.74-1.652,1.652
	s0.74,1.652,1.652,1.652s1.652-0.74,1.652-1.652S249.423,235.055,248.511,235.055z M253.379,245.493
	c0-0.266-0.103-0.516-0.292-0.705l-3.872-3.872c-0.188-0.188-0.438-0.292-0.705-0.292c-0.266,0-0.516,0.104-0.704,0.292
	l-3.872,3.872c-0.389,0.389-0.389,1.021,0,1.409l3.872,3.873c0.376,0.376,1.033,0.376,1.409,0l3.872-3.873
	C253.276,246.009,253.379,245.759,253.379,245.493z M263.482,235.055c-0.913,0-1.652,0.74-1.652,1.652s0.739,1.652,1.652,1.652
	c0.912,0,1.651-0.74,1.651-1.652S264.395,235.055,263.482,235.055z M268.351,245.493c0-0.266-0.104-0.516-0.292-0.705l-3.872-3.872
	c-0.188-0.189-0.438-0.292-0.704-0.292c-0.267,0-0.517,0.103-0.705,0.292l-3.871,3.872c-0.39,0.389-0.39,1.021,0,1.409l3.871,3.873
	c0.377,0.376,1.033,0.376,1.409,0l3.872-3.873C268.247,246.009,268.351,245.759,268.351,245.493z"/>
</svg>
