<?xml version="1.0" encoding="utf-8"?>
<!-- Generator: Adobe Illustrator 16.0.0, SVG Export Plug-In . SVG Version: 6.00 Build 0)  -->
<!DOCTYPE svg PUBLIC "-//W3C//DTD SVG 1.1//EN" "http://www.w3.org/Graphics/SVG/1.1/DTD/svg11.dtd">
<svg version="1.1" id="Capa_1" xmlns="http://www.w3.org/2000/svg" xmlns:xlink="http://www.w3.org/1999/xlink" x="0px" y="0px"
	 width="54px" height="54px" viewBox="229 229 54 54" enable-background="new 229 229 54 54" xml:space="preserve">
<g>
	<g>
		<g>
			<path fill="#0C334F" d="M255.528,246.604l-5.945-17.313l-5.95,17.337c-0.446,1.432-0.755,3.642,1.743,6.281l1.385-1.311
				c-1.773-1.873-1.677-3.22-1.317-4.373l4.139-12.068l4.135,12.04c0.151,0.487,0.221,0.898,0.221,1.297
				c0,1.144-0.47,2.236-1.326,3.08l1.335,1.36c1.223-1.204,1.895-2.78,1.895-4.439C255.844,247.905,255.744,247.297,255.528,246.604
				z"/>
		</g>
	</g>
	<g>
		<g>
			<path fill="#0C334F" d="M274.733,233.928c-0.443-1.63-1.965-2.729-3.65-2.729h-6.262V256c-2.104,0-3.81,1.708-3.81,3.815
				c0,0.698,0.203,1.345,0.528,1.907h-4.337V256h-15.239v5.723h-5.714v17.17c0,2.108,1.705,3.815,3.81,3.815h22.856
				c2.105,0,3.81-1.707,3.81-3.815v-15.79c0.572-0.334,1.044-0.805,1.378-1.38h2.979c1.687,0,3.21-1.101,3.652-2.73
				c0.949-3.496,1.515-7.826,1.515-12.53C276.25,241.755,275.685,237.422,274.733,233.928z M243.869,257.907h11.429v3.815h-11.429
				V257.907z M264.821,278.893c0,1.051-0.854,1.908-1.905,1.908H240.06c-1.049,0-1.905-0.857-1.905-1.908v-15.261h26.667V278.893z
				 M264.821,261.723c-1.049,0-1.905-0.855-1.905-1.907c0-1.051,0.856-1.908,1.905-1.908c1.05,0,1.904,0.857,1.904,1.908
				C266.726,260.867,265.871,261.723,264.821,261.723z M272.897,258.492c-0.212,0.78-0.958,1.323-1.814,1.323h-2.453
				c0-1.407-0.77-2.625-1.904-3.286v-23.422h4.357c0.854,0,1.601,0.543,1.813,1.322c0.947,3.485,1.449,7.646,1.449,12.032
				C274.346,250.841,273.844,255.002,272.897,258.492z"/>
		</g>
	</g>
</g>
</svg>
