<?xml version="1.0" encoding="utf-8"?>
<!-- Generator: Adobe Illustrator 16.0.0, SVG Export Plug-In . SVG Version: 6.00 Build 0)  -->
<!DOCTYPE svg PUBLIC "-//W3C//DTD SVG 1.1//EN" "http://www.w3.org/Graphics/SVG/1.1/DTD/svg11.dtd">
<svg version="1.1" id="Capa_1" xmlns="http://www.w3.org/2000/svg" xmlns:xlink="http://www.w3.org/1999/xlink" x="0px" y="0px"
	 width="54px" height="54px" viewBox="229 229 54 54" enable-background="new 229 229 54 54" xml:space="preserve">
<g>
	<path fill="#AD2B07" d="M273.269,266.641c0.672-0.155,1.109-0.813,0.984-1.5c-0.01-0.059-0.021-0.117-0.033-0.176
		c-0.135-0.683-0.78-1.133-1.461-1.035c0.618-0.297,0.902-1.028,0.636-1.669c-0.021-0.053-0.044-0.107-0.067-0.161
		c-0.271-0.635-0.99-0.942-1.632-0.713c0.542-0.404,0.687-1.166,0.314-1.744l-0.106-0.159c-0.381-0.563-1.126-0.733-1.709-0.406
		c0.465-0.472,0.504-1.229,0.069-1.747l-0.108-0.128c-0.434-0.513-1.178-0.604-1.721-0.237c0.419-0.5,0.404-1.247-0.058-1.73
		l-0.114-0.119c-0.461-0.48-1.202-0.529-1.721-0.137c0.392-0.517,0.344-1.257-0.135-1.719l-0.114-0.11
		c-0.478-0.461-1.215-0.485-1.719-0.079c0.372-0.526,0.305-1.259-0.182-1.707l-0.119-0.109c-0.485-0.447-1.221-0.454-1.713-0.04
		c0.363-0.53,0.286-1.26-0.203-1.701l-0.12-0.108c-0.487-0.439-1.218-0.44-1.707-0.028c0.358-0.528,0.282-1.253-0.204-1.693
		l-0.12-0.108c-0.484-0.438-1.21-0.443-1.699-0.039c0.36-0.521,0.295-1.242-0.183-1.688l-0.115-0.108
		c-0.251-0.236-0.57-0.353-0.891-0.353c-0.295,0-0.589,0.102-0.828,0.3c0.397-0.506,0.368-1.239-0.094-1.711l-0.054-0.056
		c-0.252-0.258-0.59-0.393-0.932-0.393c-0.124,0-0.249,0.02-0.37,0.056c0.191-0.87-0.392-1.862-0.853-2.344
		c-1.882-1.746-1.937-1.808-3.42-3.901c-0.482-0.602-1.621-1.454-2.625-1.055c-0.206-0.173-0.398-0.364-0.497-0.571
		c-0.181-0.387-0.001-0.942,0.129-1.347l0.015-0.046c0.045-0.132,0.092-0.266,0.139-0.399c0.21-0.602,0.428-1.224,0.574-1.852
		c0.307-1.279-0.699-2.064-1.433-2.637c-0.084-0.066-0.207-0.051-0.272,0.034s-0.051,0.206,0.034,0.272
		c0.874,0.683,1.525,1.281,1.294,2.242c-0.142,0.609-0.355,1.222-0.563,1.813c-0.047,0.133-0.094,0.267-0.141,0.405l-0.016,0.048
		c-0.086,0.27-0.191,0.596-0.218,0.925c-0.084-0.307-0.104-0.632-0.088-0.89c0.013-0.194,0.042-0.389,0.073-0.596
		c0.062-0.41,0.125-0.834,0.054-1.269c-0.18-0.899-0.683-1.457-1.454-1.613c-0.105-0.021-0.208,0.047-0.229,0.152
		s0.047,0.207,0.152,0.229c0.614,0.124,1,0.564,1.148,1.301c0.06,0.368,0.003,0.744-0.056,1.142
		c-0.031,0.206-0.063,0.418-0.076,0.627c-0.032,0.481,0.049,0.961,0.218,1.345c-0.21-0.128-0.401-0.274-0.549-0.482
		c-0.302-0.417-0.399-0.984-0.427-1.376c-0.002-0.061-0.001-0.12-0.001-0.18c0.002-0.196,0.004-0.398-0.063-0.625
		c-0.117-0.353-0.368-0.639-0.589-0.892l-0.099,0.083l-0.193,0.172c0.207,0.236,0.42,0.48,0.511,0.751
		c0.048,0.166,0.047,0.332,0.045,0.507c0,0.063-0.001,0.127,0.001,0.201c0.032,0.452,0.145,1.094,0.5,1.585
		c0.275,0.386,0.65,0.589,1.013,0.785c0.278,0.151,0.54,0.298,0.745,0.517c-0.388,0.922,0.264,2.069,0.771,2.598
		c1.882,1.745,1.937,1.808,3.421,3.902c0.417,0.519,1.324,1.227,2.21,1.152c-0.122,0.273-0.15,0.586-0.063,0.89l0.021,0.074
		c0.176,0.621,0.775,1.005,1.396,0.935c-0.559,0.23-0.899,0.829-0.781,1.446c0.009,0.048,0.018,0.095,0.027,0.143
		c0.101,0.565,0.552,0.979,1.091,1.058c-0.513,0.105-0.933,0.516-1.022,1.064c-0.007,0.041-0.014,0.082-0.022,0.123
		c-0.099,0.514,0.12,1.017,0.519,1.303c-0.491-0.113-1.025,0.065-1.342,0.498c-0.026,0.037-0.053,0.072-0.081,0.109
		c-0.357,0.468-0.348,1.102-0.018,1.554c-0.466-0.335-1.115-0.332-1.581,0.048l-0.115,0.093c-0.491,0.392-0.621,1.067-0.347,1.605
		c-0.421-0.446-1.113-0.543-1.647-0.199l-0.131,0.084c-0.55,0.351-0.748,1.047-0.489,1.625c-0.412-0.492-1.135-0.615-1.692-0.262
		l-0.138,0.088c-0.571,0.362-0.762,1.099-0.459,1.688c-0.45-0.481-1.2-0.554-1.735-0.146l-0.133,0.102
		c-0.533,0.41-0.661,1.15-0.316,1.711c-0.487-0.443-1.242-0.454-1.742-0.004l-0.125,0.112c-0.501,0.457-0.564,1.216-0.163,1.745
		c-0.533-0.401-1.294-0.336-1.749,0.171l-0.115,0.128c-0.453,0.512-0.428,1.28,0.039,1.764c-0.59-0.332-1.345-0.155-1.723,0.419
		c-0.033,0.049-0.064,0.098-0.096,0.148c-0.375,0.583-0.224,1.353,0.332,1.753c-0.658-0.217-1.377,0.121-1.624,0.776
		c-0.021,0.056-0.042,0.113-0.063,0.171c-0.239,0.664,0.097,1.395,0.751,1.649c-0.708-0.024-1.307,0.531-1.338,1.241
		c-0.003,0.063-0.005,0.126-0.007,0.188c-0.017,0.717,0.551,1.313,1.269,1.33c0,0,0,0,0.001,0c-0.679,0.229-1.045,0.963-0.818,1.644
		c0.019,0.059,0.04,0.118,0.061,0.178c0.239,0.67,0.971,1.021,1.641,0.795c-0.555,0.425-0.674,1.218-0.263,1.79
		c0.035,0.048,0.07,0.097,0.105,0.145c0.414,0.559,1.191,0.689,1.763,0.31c-0.431,0.532-0.375,1.315,0.139,1.78
		c0.044,0.04,0.09,0.08,0.135,0.12c0.519,0.456,1.299,0.424,1.78-0.061c-0.313,0.605-0.105,1.358,0.488,1.713l0.149,0.087
		c0.595,0.349,1.351,0.17,1.731-0.392c-0.197,0.646,0.136,1.345,0.777,1.592l0.161,0.061c0.64,0.24,1.351-0.058,1.634-0.669
		c-0.093,0.664,0.338,1.3,1.004,1.448l0.168,0.037c0.665,0.143,1.32-0.252,1.515-0.891c-0.003,0.666,0.504,1.236,1.181,1.299
		l0.169,0.015c0.676,0.058,1.275-0.413,1.39-1.069c0.075,0.66,0.648,1.169,1.322,1.15l0.17-0.005
		c0.676-0.021,1.216-0.555,1.257-1.218c0.147,0.647,0.768,1.089,1.438,0.999l0.166-0.022c0.671-0.092,1.151-0.682,1.122-1.345
		c0.215,0.629,0.877,1.002,1.536,0.841l0.163-0.04c0.657-0.163,1.072-0.801,0.972-1.458c0.283,0.603,0.984,0.9,1.621,0.668
		l0.158-0.059c0.639-0.236,0.979-0.921,0.802-1.564c0.354,0.567,1.091,0.777,1.696,0.466l0.151-0.079
		c0.608-0.317,0.859-1.051,0.588-1.671c0.441,0.515,1.213,0.604,1.764,0.193l0.138-0.104c0.549-0.417,0.673-1.186,0.296-1.751
		c0.528,0.432,1.307,0.384,1.776-0.124c0.04-0.043,0.08-0.086,0.119-0.129c0.465-0.514,0.443-1.298-0.038-1.785
		c0.607,0.321,1.367,0.111,1.723-0.485c0.03-0.052,0.061-0.102,0.09-0.153c0.35-0.604,0.158-1.372-0.423-1.745
		c0.669,0.178,1.365-0.202,1.572-0.869c0.019-0.058,0.036-0.115,0.053-0.173c0.198-0.67-0.169-1.373-0.824-1.598
		c0.693,0.009,1.276-0.528,1.315-1.227c0.004-0.06,0.006-0.119,0.009-0.18C274.484,267.292,273.957,266.7,273.269,266.641z
		 M256.311,245.875c-0.059,0.073-0.112,0.148-0.153,0.229c-0.079-0.005-0.159,0-0.24,0.01c0.064-0.026,0.126-0.054,0.184-0.089
		C256.175,245.983,256.244,245.932,256.311,245.875z M272.725,269.325c-0.575-0.007-1.093,0.36-1.262,0.932
		c-0.014,0.046-0.027,0.091-0.041,0.136c-0.179,0.572,0.058,1.173,0.537,1.48c-0.553-0.146-1.156,0.089-1.456,0.607
		c-0.023,0.042-0.049,0.083-0.073,0.124c-0.309,0.519-0.215,1.166,0.19,1.577c-0.512-0.27-1.161-0.172-1.568,0.277l-0.099,0.108
		c-0.416,0.449-0.454,1.112-0.131,1.6c-0.455-0.371-1.121-0.397-1.609-0.025l-0.118,0.089c-0.493,0.369-0.649,1.02-0.415,1.56
		c-0.386-0.446-1.041-0.587-1.588-0.301l-0.134,0.069c-0.558,0.287-0.819,0.92-0.659,1.5c-0.319-0.511-0.966-0.745-1.555-0.527
		l-0.143,0.053c-0.593,0.217-0.932,0.817-0.841,1.418c-0.258-0.551-0.877-0.859-1.488-0.707l-0.15,0.036
		c-0.613,0.149-1.02,0.712-0.992,1.32c-0.197-0.576-0.78-0.951-1.406-0.865l-0.153,0.021c-0.627,0.083-1.089,0.599-1.127,1.206
		c-0.135-0.594-0.674-1.026-1.308-1.008l-0.151,0.004c-0.629,0.015-1.145,0.476-1.25,1.073c-0.069-0.603-0.554-1.093-1.181-1.146
		l-0.15-0.013c-0.625-0.058-1.186,0.337-1.363,0.914c0.002-0.603-0.416-1.145-1.028-1.276l-0.146-0.031
		c-0.607-0.136-1.209,0.177-1.462,0.718c0.083-0.589-0.251-1.177-0.832-1.395l-0.139-0.053c-0.575-0.221-1.209-0.007-1.542,0.481
		c0.171-0.563-0.059-1.188-0.588-1.498l-0.128-0.076c-0.523-0.313-1.177-0.215-1.588,0.198c0.267-0.518,0.159-1.169-0.299-1.572
		c-0.035-0.03-0.071-0.063-0.105-0.094c-0.45-0.406-1.106-0.44-1.589-0.12c0.363-0.45,0.392-1.104,0.032-1.59
		c-0.029-0.039-0.056-0.076-0.084-0.115c-0.342-0.475-0.944-0.65-1.47-0.473c0.435-0.335,0.625-0.923,0.431-1.467
		c-0.015-0.043-0.03-0.085-0.043-0.127c-0.178-0.533-0.669-0.876-1.202-0.889c0.503-0.17,0.87-0.64,0.883-1.201
		c0.001-0.044,0.003-0.089,0.005-0.134c0.025-0.57-0.321-1.07-0.824-1.269c0.547,0.016,1.066-0.317,1.261-0.86
		c0.016-0.043,0.032-0.087,0.048-0.131c0.212-0.56,0.011-1.175-0.451-1.511c0.55,0.181,1.173-0.023,1.5-0.534
		c0.026-0.041,0.052-0.081,0.079-0.122c0.341-0.517,0.264-1.188-0.15-1.616c0.523,0.294,1.197,0.194,1.61-0.272l0.101-0.113
		c0.423-0.47,0.439-1.165,0.071-1.651c0.489,0.368,1.187,0.35,1.656-0.078l0.113-0.103c0.475-0.425,0.562-1.121,0.24-1.646
		c0.457,0.415,1.158,0.456,1.664,0.067l0.123-0.093c0.509-0.388,0.653-1.077,0.372-1.627c0.419,0.447,1.11,0.549,1.646,0.207
		l0.134-0.085c0.552-0.35,0.751-1.047,0.492-1.627c0.413,0.493,1.137,0.615,1.694,0.26l0.141-0.09
		c0.567-0.364,0.755-1.096,0.455-1.684c0.459,0.488,1.225,0.548,1.757,0.122l0.134-0.108c0.539-0.439,0.634-1.22,0.228-1.774
		c0.568,0.411,1.364,0.295,1.793-0.265c0.038-0.049,0.075-0.099,0.111-0.149c0.424-0.579,0.3-1.393-0.279-1.817
		c-0.004-0.003-0.009-0.006-0.013-0.01c0.016,0.004,0.033,0.008,0.05,0.011c0.705,0.135,1.386-0.326,1.522-1.031
		c0.012-0.064,0.023-0.129,0.034-0.194c0.116-0.708-0.364-1.376-1.073-1.493c-0.008-0.001-0.016-0.002-0.023-0.003
		c0.425-0.086,0.761-0.372,0.927-0.741c0.342,0.039,0.696-0.059,0.975-0.29c-0.366,0.529-0.291,1.26,0.199,1.703l0.118,0.108
		c0.249,0.224,0.561,0.335,0.871,0.335c0.301,0,0.599-0.103,0.838-0.306c-0.358,0.529-0.281,1.255,0.207,1.694l0.119,0.108
		c0.488,0.439,1.216,0.441,1.704,0.031c-0.36,0.525-0.289,1.249,0.192,1.692l0.119,0.108c0.479,0.442,1.202,0.454,1.695,0.057
		c-0.365,0.515-0.31,1.232,0.157,1.684l0.117,0.112c0.467,0.451,1.185,0.482,1.686,0.103c-0.378,0.5-0.349,1.216,0.102,1.684
		l0.107,0.112c0.444,0.467,1.152,0.529,1.669,0.18c-0.398,0.477-0.408,1.184,0.007,1.674l0.099,0.116
		c0.407,0.487,1.095,0.6,1.629,0.302c-0.426,0.433-0.502,1.119-0.148,1.641l0.072,0.107c0.332,0.519,0.973,0.721,1.528,0.522
		c-0.47,0.351-0.656,0.989-0.415,1.552l0.057,0.136c0.233,0.56,0.811,0.87,1.384,0.788c-0.52,0.251-0.826,0.83-0.708,1.422
		c0.009,0.047,0.018,0.094,0.026,0.14c0.107,0.59,0.597,1.013,1.165,1.062c-0.554,0.129-0.979,0.615-1.003,1.213
		c-0.002,0.047-0.004,0.093-0.007,0.14C271.817,268.617,272.188,269.141,272.725,269.325z"/>
	<polygon fill="#AD2B07" points="245.153,232.174 245.202,232.132 245.299,232.046 	"/>
</g>
</svg>
