<?xml version="1.0" encoding="utf-8"?>
<!-- Generator: Adobe Illustrator 16.0.0, SVG Export Plug-In . SVG Version: 6.00 Build 0)  -->
<!DOCTYPE svg PUBLIC "-//W3C//DTD SVG 1.1//EN" "http://www.w3.org/Graphics/SVG/1.1/DTD/svg11.dtd">
<svg version="1.1" id="Capa_1" xmlns="http://www.w3.org/2000/svg" xmlns:xlink="http://www.w3.org/1999/xlink" x="0px" y="0px"
	 width="54px" height="54px" viewBox="229 229 54 54" enable-background="new 229 229 54 54" xml:space="preserve">
<path fill="#4EA310" d="M256,282.581c-2.011,0-3.646-1.666-3.646-3.715v-0.967c-0.394-0.068-0.786-0.146-1.174-0.234l-0.355,0.867
	c-0.569,1.389-1.89,2.285-3.366,2.285l0,0c-0.483,0-0.955-0.096-1.403-0.287c-0.899-0.383-1.598-1.1-1.968-2.016
	c-0.37-0.92-0.368-1.93,0.008-2.846l0.344-0.84c-0.357-0.229-0.709-0.467-1.053-0.717l-0.671,0.684
	c-0.688,0.701-1.604,1.088-2.578,1.088s-1.89-0.387-2.578-1.088s-1.068-1.635-1.068-2.629c0-0.992,0.379-1.926,1.068-2.627
	l0.671-0.684c-0.242-0.348-0.475-0.701-0.696-1.061l-0.796,0.334c-0.443,0.186-0.909,0.279-1.385,0.279c0,0,0,0,0,0
	c-1.485,0-2.809-0.904-3.373-2.305c-0.765-1.895,0.126-4.07,1.986-4.85l0.783-0.328c-0.089-0.4-0.167-0.805-0.234-1.211h-0.948
	c-2.01,0-3.646-1.668-3.646-3.717c0-2.048,1.636-3.715,3.646-3.715h0.947c0.073-0.446,0.161-0.89,0.261-1.33l-0.781-0.332
	c-0.898-0.382-1.598-1.099-1.968-2.017c-0.371-0.918-0.368-1.929,0.008-2.845c0.568-1.388,1.889-2.285,3.365-2.285
	c0.483,0,0.955,0.096,1.403,0.288l0.795,0.338c0.203-0.324,0.413-0.645,0.633-0.958l-0.671-0.684
	c-0.688-0.702-1.068-1.635-1.068-2.628c0-0.992,0.379-1.925,1.068-2.628c0.688-0.702,1.604-1.088,2.578-1.088
	s1.89,0.387,2.579,1.088l0.671,0.684c0.376-0.272,0.762-0.534,1.153-0.781l-0.339-0.843c-0.37-0.918-0.367-1.928,0.008-2.844
	c0.375-0.917,1.078-1.629,1.979-2.006c0.443-0.186,0.909-0.279,1.385-0.279c1.485,0,2.809,0.904,3.373,2.304l0.352,0.871
	c0.35-0.078,0.704-0.148,1.058-0.209v-0.965c0-2.048,1.636-3.715,3.646-3.715c2.011,0,3.646,1.667,3.646,3.716v0.965
	c0.456,0.079,0.91,0.171,1.358,0.279l0.373-0.912c0.569-1.389,1.89-2.286,3.366-2.286c0.483,0,0.955,0.097,1.403,0.288
	c1.855,0.789,2.735,2.97,1.961,4.861l-0.387,0.944c0.303,0.196,0.601,0.402,0.894,0.614l0.671-0.684
	c0.688-0.702,1.604-1.088,2.578-1.088c0.974,0,1.889,0.386,2.577,1.088c1.422,1.449,1.422,3.807,0,5.255l-0.671,0.684
	c0.258,0.368,0.504,0.745,0.738,1.128l0.957-0.401c0.442-0.186,0.909-0.28,1.385-0.28c1.485,0,2.809,0.905,3.373,2.304
	c0.765,1.895-0.126,4.071-1.985,4.85l-0.969,0.406c0.083,0.375,0.155,0.754,0.218,1.134h0.947c2.012,0,3.646,1.667,3.646,3.715
	c0,2.049-1.635,3.717-3.646,3.717h-0.947c-0.069,0.42-0.15,0.838-0.243,1.252l0.966,0.41c0.897,0.383,1.598,1.1,1.968,2.016
	c0.37,0.92,0.367,1.93-0.008,2.846c-0.568,1.387-1.89,2.285-3.366,2.285l0,0c-0.483,0-0.955-0.098-1.403-0.287l-0.955-0.406
	c-0.215,0.348-0.44,0.689-0.675,1.025l0.671,0.684c1.422,1.449,1.422,3.807,0,5.254c-0.688,0.703-1.604,1.09-2.577,1.09
	c-0.975,0-1.89-0.387-2.578-1.09l-0.671-0.682c-0.325,0.234-0.658,0.461-0.994,0.678l0.382,0.945
	c0.37,0.918,0.367,1.928-0.008,2.844c-0.376,0.916-1.078,1.629-1.979,2.006c-0.442,0.186-0.909,0.279-1.385,0.279l0,0
	c-1.484,0-2.809-0.904-3.373-2.303l-0.368-0.914c-0.412,0.096-0.827,0.18-1.243,0.252v0.967
	C259.646,280.915,258.011,282.581,256,282.581z M253.897,278.106v0.76c0,1.18,0.944,2.141,2.103,2.141
	c1.159,0,2.102-0.961,2.102-2.141v-0.76C256.707,278.243,255.292,278.243,253.897,278.106z M262.394,277.237l0.292,0.725
	c0.326,0.807,1.089,1.33,1.945,1.33l0,0c0.273,0,0.542-0.055,0.798-0.162c0.52-0.217,0.924-0.629,1.141-1.156
	s0.218-1.109,0.005-1.639l-0.3-0.744C265.034,276.267,263.734,276.819,262.394,277.237z M245.786,275.624l-0.267,0.65
	c-0.216,0.529-0.218,1.111-0.005,1.641c0.214,0.529,0.616,0.941,1.135,1.162c0.259,0.111,0.531,0.166,0.808,0.166
	c0.852,0,1.613-0.518,1.941-1.316l0.274-0.668C248.329,276.843,247.027,276.296,245.786,275.624z M253.897,276.524
	c1.393,0.146,2.812,0.146,4.204,0v-0.545c0-1.182-0.942-2.143-2.102-2.143c-1.159,0-2.103,0.961-2.103,2.143V276.524z M256,272.263
	c2.011,0,3.646,1.668,3.646,3.717v0.322c0.217-0.041,0.433-0.084,0.647-0.131l-0.112-0.279c-0.37-0.918-0.368-1.928,0.008-2.844
	c0.375-0.916,1.078-1.627,1.979-2.006c0.442-0.186,0.909-0.279,1.385-0.279c1.485,0,2.809,0.904,3.373,2.303l0.1,0.246
	c0.161-0.107,0.322-0.219,0.48-0.33l-0.222-0.227c-0.688-0.701-1.067-1.635-1.067-2.627c0-0.994,0.379-1.926,1.067-2.627
	c0.688-0.703,1.604-1.09,2.578-1.09c0.975,0,1.89,0.387,2.578,1.09l0.223,0.225c0.114-0.168,0.226-0.338,0.336-0.512l-0.211-0.09
	c-0.898-0.381-1.598-1.098-1.968-2.016c-0.369-0.918-0.367-1.928,0.008-2.844c0.568-1.389,1.89-2.285,3.366-2.285
	c0.482,0,0.955,0.096,1.402,0.287l0.2,0.084c0.044-0.211,0.085-0.422,0.123-0.635h-0.316c-2.01,0-3.646-1.668-3.646-3.717
	s1.636-3.716,3.646-3.716h0.316c-0.031-0.176-0.064-0.352-0.101-0.526l-0.2,0.083c-0.442,0.186-0.909,0.28-1.385,0.28l0,0
	c-1.485,0-2.809-0.905-3.373-2.305c-0.37-0.918-0.367-1.928,0.008-2.844s1.077-1.628,1.979-2.006l0.211-0.088
	c-0.128-0.204-0.261-0.406-0.396-0.605l-0.223,0.227c-0.688,0.702-1.604,1.088-2.577,1.088c-0.975,0-1.89-0.387-2.579-1.088
	c-0.688-0.702-1.067-1.635-1.067-2.628c0-0.993,0.379-1.926,1.067-2.628l0.223-0.226c-0.129-0.091-0.259-0.18-0.39-0.268l-0.1,0.243
	c-0.568,1.388-1.89,2.286-3.365,2.286l0,0c-0.483,0-0.955-0.097-1.404-0.288c-0.898-0.382-1.598-1.098-1.967-2.016
	c-0.37-0.918-0.368-1.929,0.007-2.844l0.113-0.277c-0.251-0.057-0.502-0.108-0.755-0.155v0.322c0,2.049-1.635,3.716-3.646,3.716
	c-2.011,0-3.646-1.667-3.646-3.716v-0.322c-0.154,0.028-0.308,0.059-0.461,0.091l0.127,0.318c0.765,1.896-0.126,4.071-1.986,4.85
	c-0.443,0.186-0.909,0.279-1.385,0.279c-1.485,0-2.809-0.904-3.373-2.304l-0.141-0.349c-0.216,0.141-0.43,0.285-0.641,0.434
	l0.222,0.226c1.422,1.449,1.422,3.807,0,5.255c-0.688,0.702-1.604,1.088-2.578,1.088c-0.975,0-1.89-0.387-2.578-1.088l-0.222-0.227
	c-0.1,0.146-0.198,0.295-0.293,0.444l0.37,0.158c0.899,0.382,1.598,1.098,1.968,2.016c0.37,0.918,0.368,1.929-0.007,2.845
	c-0.569,1.388-1.89,2.285-3.366,2.285l0,0c-0.483,0-0.955-0.097-1.403-0.288l-0.385-0.164c-0.051,0.237-0.098,0.475-0.14,0.714
	h0.316c2.011,0,3.646,1.667,3.646,3.715c0,2.051-1.636,3.719-3.646,3.719h-0.316c0.036,0.201,0.075,0.404,0.117,0.604l0.386-0.16
	c0.443-0.186,0.909-0.279,1.385-0.279c1.485,0,2.809,0.904,3.374,2.303c0.764,1.896-0.127,4.072-1.987,4.85l-0.371,0.156
	c0.115,0.182,0.233,0.361,0.354,0.539l0.222-0.227c0.689-0.703,1.604-1.09,2.579-1.09c0.974,0,1.889,0.387,2.578,1.09
	c1.421,1.447,1.421,3.807,0,5.254l-0.222,0.227c0.181,0.127,0.363,0.252,0.548,0.373l0.143-0.348
	c0.569-1.389,1.891-2.285,3.366-2.285c0.483,0,0.955,0.096,1.403,0.287c0.899,0.383,1.598,1.098,1.968,2.018
	c0.37,0.916,0.368,1.928-0.007,2.844l-0.13,0.318c0.189,0.039,0.379,0.078,0.569,0.113v-0.322
	C252.354,273.931,253.989,272.263,256,272.263z M246.384,274.165c1.237,0.682,2.54,1.229,3.887,1.633l0.219-0.535
	c0.217-0.527,0.218-1.109,0.005-1.639c-0.214-0.529-0.617-0.941-1.135-1.164c-0.259-0.109-0.531-0.166-0.809-0.166
	c-0.851,0-1.613,0.518-1.94,1.318L246.384,274.165z M263.552,272.337c-0.273,0-0.541,0.053-0.798,0.162
	c-0.52,0.217-0.924,0.627-1.141,1.156c-0.217,0.527-0.219,1.109-0.005,1.639l0.195,0.48c1.345-0.408,2.645-0.961,3.879-1.648
	l-0.186-0.461C265.172,272.858,264.408,272.337,263.552,272.337z M269.852,273.146l0.525,0.537c0.397,0.404,0.925,0.627,1.486,0.627
	s1.09-0.223,1.486-0.627c0.82-0.834,0.82-2.193,0-3.029l-0.526-0.537C271.93,271.222,270.935,272.235,269.852,273.146z
	 M239.176,270.116l-0.527,0.537c-0.397,0.404-0.616,0.941-0.616,1.514s0.219,1.111,0.616,1.516c0.397,0.404,0.925,0.627,1.486,0.627
	c0.562,0,1.089-0.223,1.486-0.627l0.526-0.537C241.065,272.235,240.069,271.222,239.176,270.116z M240.273,268.999
	c0.885,1.111,1.882,2.127,2.973,3.029l0.378-0.385c0.82-0.836,0.82-2.195,0-3.031c-0.397-0.404-0.925-0.627-1.486-0.627
	c-0.562,0-1.089,0.223-1.486,0.627L240.273,268.999z M269.861,267.985c-0.562,0-1.09,0.223-1.486,0.627
	c-0.396,0.406-0.615,0.943-0.615,1.516s0.219,1.109,0.615,1.516l0.379,0.385c1.091-0.902,2.087-1.918,2.973-3.031l-0.379-0.385
	C270.95,268.208,270.423,267.985,269.861,267.985z M275.229,266.458l0.766,0.326c0.259,0.111,0.531,0.166,0.809,0.166
	c0.852,0,1.613-0.518,1.94-1.316c0.447-1.092-0.06-2.348-1.129-2.803l-0.772-0.33C276.432,263.87,275.891,265.194,275.229,266.458z
	 M235.146,262.462l-0.594,0.248c-0.52,0.219-0.924,0.629-1.141,1.156c-0.217,0.529-0.218,1.111-0.005,1.641
	c0.326,0.807,1.089,1.328,1.946,1.328l0,0c0.273,0,0.542-0.055,0.798-0.16l0.602-0.254
	C236.091,265.157,235.553,263.831,235.146,262.462z M274.193,261.554c-0.853,0-1.614,0.518-1.942,1.316
	c-0.215,0.529-0.217,1.111-0.004,1.641c0.214,0.529,0.616,0.941,1.135,1.162l0.413,0.178c0.673-1.262,1.214-2.588,1.614-3.957
	l-0.408-0.174C274.742,261.608,274.47,261.554,274.193,261.554z M236.581,261.86c0.397,1.373,0.937,2.699,1.606,3.959l0.581-0.242
	c1.072-0.449,1.585-1.703,1.145-2.795c-0.326-0.809-1.089-1.33-1.945-1.33c-0.273,0-0.542,0.055-0.798,0.162L236.581,261.86z
	 M277.69,258.144h0.744c1.159,0,2.102-0.963,2.102-2.145c0-1.18-0.942-2.141-2.102-2.141h-0.744c0.066,0.71,0.101,1.427,0.101,2.141
	C277.791,256.716,277.757,257.433,277.69,258.144z M275.603,253.858c-1.159,0-2.102,0.961-2.102,2.141
	c0,1.182,0.942,2.145,2.102,2.145h0.536c0.071-0.711,0.107-1.428,0.107-2.145c0-0.714-0.036-1.432-0.107-2.141H275.603z
	 M235.86,258.144h0.536c1.159,0,2.102-0.963,2.102-2.145c0-1.18-0.943-2.141-2.102-2.141h-0.536
	c-0.071,0.709-0.107,1.427-0.107,2.141C235.753,256.716,235.789,257.433,235.86,258.144z M233.565,253.858
	c-1.159,0-2.102,0.961-2.102,2.141c0,1.182,0.942,2.145,2.102,2.145h0.743c-0.066-0.711-0.1-1.428-0.1-2.145
	c0-0.714,0.034-1.431,0.1-2.141H233.565z M273.849,246.249l-0.415,0.174c-0.521,0.218-0.925,0.628-1.142,1.156
	c-0.216,0.528-0.217,1.11-0.004,1.64c0.326,0.807,1.089,1.328,1.945,1.328l0,0c0.273,0,0.541-0.054,0.798-0.161l0.409-0.172
	C275.047,248.841,274.515,247.512,273.849,246.249z M236.612,250.031l0.588,0.25c0.259,0.11,0.531,0.167,0.809,0.167l0,0
	c0.852,0,1.613-0.518,1.941-1.318c0.216-0.528,0.218-1.11,0.005-1.64c-0.214-0.53-0.617-0.942-1.135-1.163l-0.579-0.247
	C237.563,247.337,237.018,248.661,236.612,250.031z M275.283,245.648c0.656,1.267,1.189,2.595,1.593,3.965l0.774-0.324
	c1.071-0.449,1.586-1.704,1.145-2.796c-0.326-0.807-1.089-1.328-1.945-1.328c-0.273,0-0.542,0.054-0.798,0.162L275.283,245.648z
	 M235.398,245.049c-0.851,0-1.613,0.518-1.94,1.318c-0.217,0.528-0.218,1.11-0.004,1.639c0.213,0.53,0.616,0.942,1.134,1.163
	l0.593,0.252c0.415-1.366,0.96-2.689,1.627-3.951l-0.601-0.255C235.948,245.105,235.676,245.049,235.398,245.049z M268.753,239.972
	l-0.378,0.385c-0.396,0.404-0.615,0.942-0.615,1.515s0.219,1.11,0.615,1.515s0.925,0.628,1.486,0.628s1.089-0.223,1.485-0.628
	l0.379-0.385C270.841,241.89,269.845,240.875,268.753,239.972z M240.274,243.001l0.378,0.386c0.397,0.405,0.925,0.627,1.486,0.627
	c0.561,0,1.089-0.223,1.486-0.627c0.82-0.835,0.82-2.195,0-3.03l-0.378-0.385C242.155,240.875,241.159,241.89,240.274,243.001z
	 M269.852,238.854c1.083,0.911,2.078,1.925,2.972,3.029l0.526-0.536c0.82-0.835,0.82-2.194,0-3.03
	c-0.396-0.404-0.925-0.627-1.486-0.627s-1.089,0.223-1.486,0.627L269.852,238.854z M240.136,237.689
	c-0.562,0-1.089,0.223-1.486,0.627c-0.397,0.405-0.616,0.943-0.616,1.515c0,0.572,0.219,1.11,0.616,1.515l0.526,0.537
	c0.893-1.104,1.889-2.119,2.973-3.03l-0.526-0.537C241.225,237.913,240.697,237.689,240.136,237.689z M261.908,236.257l-0.196,0.48
	c-0.216,0.528-0.217,1.11-0.005,1.64c0.214,0.529,0.616,0.942,1.135,1.162c0.26,0.11,0.531,0.167,0.81,0.167
	c0.851,0,1.612-0.518,1.94-1.318l0.188-0.459C264.549,237.234,263.251,236.674,261.908,236.257z M246.481,237.782l0.223,0.553
	c0.325,0.807,1.089,1.329,1.945,1.329c0.273,0,0.542-0.055,0.798-0.162c1.072-0.449,1.586-1.703,1.145-2.795l-0.216-0.535
	C249.027,236.567,247.722,237.108,246.481,237.782z M253.897,235.475v0.546c0,1.181,0.944,2.142,2.103,2.142
	c1.159,0,2.102-0.96,2.102-2.142v-0.546C256.709,235.328,255.29,235.328,253.897,235.475z M262.507,234.798
	c1.339,0.427,2.636,0.986,3.871,1.669l0.304-0.742c0.447-1.09-0.06-2.347-1.129-2.803c-0.26-0.11-0.531-0.166-0.81-0.166
	c-0.852,0-1.612,0.517-1.94,1.317L262.507,234.798z M247.571,232.708c-0.273,0-0.542,0.055-0.798,0.162
	c-0.52,0.218-0.925,0.628-1.141,1.156s-0.218,1.11-0.004,1.639l0.264,0.654c1.245-0.666,2.549-1.206,3.895-1.613l-0.27-0.67
	C249.19,233.23,248.427,232.708,247.571,232.708z M256,233.791c0.701,0,1.405,0.035,2.102,0.103v-0.758
	c0-1.181-0.942-2.143-2.102-2.143c-1.159,0-2.102,0.961-2.102,2.143v0.758C254.595,233.825,255.299,233.791,256,233.791z"/>
</svg>
