<?xml version="1.0" encoding="utf-8"?>
<!-- Generator: Adobe Illustrator 16.0.0, SVG Export Plug-In . SVG Version: 6.00 Build 0)  -->
<!DOCTYPE svg PUBLIC "-//W3C//DTD SVG 1.1//EN" "http://www.w3.org/Graphics/SVG/1.1/DTD/svg11.dtd">
<svg version="1.1" id="Capa_1" xmlns="http://www.w3.org/2000/svg" xmlns:xlink="http://www.w3.org/1999/xlink" x="0px" y="0px"
	 width="54px" height="54px" viewBox="229 229 54 54" enable-background="new 229 229 54 54" xml:space="preserve">
<path fill="#D9B500" d="M264.955,275.742c-3.664,0-7.152-1.102-10.13-3.19c-2.66,2.002-5.967,3.19-9.546,3.19
	c-8.769,0-15.904-7.134-15.904-15.903c0-7.496,5.213-13.798,12.205-15.469l-3.501-3.971c-0.124-0.139-0.2-0.32-0.206-0.519
	c-0.001-0.023-0.001-0.045,0.001-0.067c0-0.001,0-0.001,0-0.002c0.009-0.152,0.058-0.293,0.139-0.411l1.829-2.778
	c0.151-0.229,0.407-0.368,0.682-0.368h9.51c0.275,0,0.53,0.139,0.681,0.368l1.829,2.777c0.084,0.123,0.135,0.27,0.14,0.429
	c0,0.001,0,0.001,0,0.002l0,0c0.001,0.012,0.001,0.024,0.001,0.035l0,0c0,0,0,0.001,0,0.002c-0.002,0.204-0.08,0.39-0.207,0.532
	l-3.501,3.971c1.204,0.288,2.355,0.713,3.437,1.258c3.305-3.329,7.84-5.226,12.541-5.226c9.743,0,17.67,7.927,17.67,17.671
	S274.698,275.742,264.955,275.742z M256.126,271.465c2.621,1.735,5.653,2.647,8.829,2.647c8.843,0,16.039-7.195,16.039-16.04
	c0-8.844-7.196-16.04-16.039-16.04c-4.119,0-8.098,1.605-11.069,4.435c0.455,0.294,0.895,0.611,1.32,0.951
	c2.67-2.448,6.102-3.788,9.749-3.788c7.963,0,14.442,6.479,14.442,14.44c0,7.965-6.479,14.443-14.442,14.443
	c-2.746,0-5.391-0.767-7.694-2.223C256.901,270.702,256.523,271.094,256.126,271.465z M243.224,245.714
	c-6.9,0.999-12.218,6.953-12.218,14.125c0,7.869,6.403,14.273,14.272,14.273s14.271-6.404,14.271-14.273
	c0-7.172-5.316-13.126-12.217-14.125l-2.054-0.146L243.224,245.714z M258.272,268.999c2.009,1.235,4.302,1.883,6.683,1.883
	c7.063,0,12.812-5.746,12.812-12.81c0-7.064-5.748-12.811-12.812-12.811c-3.179,0-6.175,1.147-8.525,3.249
	c2.931,2.887,4.75,6.899,4.75,11.329C261.181,263.246,260.104,266.408,258.272,268.999z M240.494,240.673l2.969,3.366
	c0.596-0.068,1.202-0.103,1.816-0.103l0,0l0,0c0.614,0,1.219,0.035,1.816,0.103l2.967-3.366H240.494z M240.201,239.042h10.154
	l-0.761-1.155h-8.632L240.201,239.042z M245.279,272.854c-7.176,0-13.014-5.839-13.014-13.015c0-7.175,5.838-13.013,13.014-13.013
	c2.101,0,4.087,0.5,5.847,1.389c0.007,0.003,0.016,0.008,0.025,0.012c1.032,0.523,1.988,1.178,2.841,1.948
	c0.023,0.021,0.044,0.042,0.064,0.065c2.602,2.381,4.235,5.804,4.235,9.6c0,2.972-1.001,5.711-2.682,7.904
	c-0.011,0.017-0.024,0.036-0.038,0.052c-0.708,0.916-1.53,1.73-2.446,2.424c-0.022,0.018-0.046,0.032-0.069,0.048
	C250.885,271.892,248.193,272.854,245.279,272.854z M245.279,248.457c-6.277,0-11.383,5.106-11.383,11.382
	c0,6.276,5.106,11.383,11.383,11.383c2.258,0,4.365-0.662,6.136-1.801c-2.67-3.179-4.131-7.174-4.131-11.349
	c0-3.087,0.801-6.096,2.325-8.759C248.274,248.761,246.811,248.457,245.279,248.457z M251.071,250.043
	c-1.413,2.437-2.157,5.197-2.157,8.029c0,3.819,1.347,7.473,3.809,10.371c0.404-0.35,0.784-0.728,1.134-1.13
	c-2.162-2.594-3.346-5.847-3.346-9.241c0-2.505,0.647-4.95,1.877-7.116C251.973,250.623,251.532,250.317,251.071,250.043z
	 M253.62,252.103c-0.968,1.834-1.477,3.879-1.477,5.97c0,2.88,0.96,5.648,2.725,7.896c1.135-1.771,1.794-3.874,1.794-6.129
	C256.662,256.854,255.506,254.134,253.62,252.103z"/>
</svg>
