<?xml version="1.0" encoding="utf-8"?>
<!-- Generator: Adobe Illustrator 16.0.0, SVG Export Plug-In . SVG Version: 6.00 Build 0)  -->
<!DOCTYPE svg PUBLIC "-//W3C//DTD SVG 1.1//EN" "http://www.w3.org/Graphics/SVG/1.1/DTD/svg11.dtd">
<svg version="1.1" id="Capa_1" xmlns="http://www.w3.org/2000/svg" xmlns:xlink="http://www.w3.org/1999/xlink" x="0px" y="0px"
	 width="54px" height="54px" viewBox="229 229 54 54" enable-background="new 229 229 54 54" xml:space="preserve">
<path fill="#933EC5" d="M272.621,282.677c-0.452,0-0.819-0.366-0.819-0.819v-18.062c-0.635,0.09-1.238,0.281-1.792,0.558V279.1
	c0,0.452-0.365,0.819-0.818,0.819c-0.452,0-0.819-0.367-0.819-0.819V265.57c-0.994,1.05-1.605,2.467-1.605,4.022v6.748
	c0,0.452-0.366,0.818-0.818,0.818c-0.453,0-0.819-0.366-0.819-0.818v-6.748c0-3.075,1.862-5.723,4.519-6.877
	c-1.138-0.887-1.872-2.271-1.872-3.822c0-2.393,1.743-4.386,4.026-4.776v-14.755c0-0.389,0.063-0.772,0.188-1.141l1.613-4.745
	c0.31-0.911-0.11-1.912-0.977-2.329c-0.764-0.368-1.688-0.182-2.251,0.451l-1.305,1.469c-1.577,1.775-3.833,2.769-6.221,2.722
	l-4.411-0.085c-0.452-0.008-0.813-0.382-0.804-0.834c0.009-0.452,0.386-0.817,0.835-0.803l4.412,0.085
	c1.896,0.04,3.704-0.756,4.965-2.173l1.305-1.469c1.046-1.177,2.767-1.521,4.186-0.838c1.611,0.776,2.394,2.638,1.817,4.333
	l-1.613,4.745c-0.067,0.198-0.102,0.404-0.102,0.613v14.755c2.282,0.39,4.026,2.383,4.026,4.776c0,1.553-0.732,2.936-1.871,3.822
	c2.656,1.154,4.518,3.803,4.518,6.877v6.748c0,0.452-0.367,0.818-0.818,0.818c-0.453,0-0.82-0.366-0.82-0.818v-6.748
	c0-1.633-0.671-3.111-1.754-4.174v13.68c0,0.453-0.367,0.82-0.818,0.82c-0.453,0-0.82-0.367-0.82-0.82v-14.816
	c-0.512-0.238-1.063-0.405-1.643-0.486v18.062C273.44,282.311,273.074,282.677,272.621,282.677z M272.621,255.687
	c-1.769,0-3.207,1.438-3.207,3.207c0,1.768,1.438,3.207,3.207,3.207s3.207-1.439,3.207-3.207
	C275.828,257.125,274.39,255.687,272.621,255.687z M246.871,282.677c-0.452,0-0.819-0.366-0.819-0.819v-18.062
	c-0.635,0.09-1.238,0.281-1.791,0.558V279.1c0,0.452-0.367,0.819-0.819,0.819c-0.453,0-0.819-0.367-0.819-0.819V265.57
	c-0.995,1.05-1.605,2.467-1.605,4.022v6.748c0,0.452-0.367,0.818-0.819,0.818c-0.452,0-0.818-0.366-0.818-0.818v-6.748
	c0-3.075,1.861-5.723,4.518-6.877c-1.138-0.887-1.871-2.271-1.871-3.822c0-2.393,1.743-4.386,4.025-4.776v-14.755
	c0-0.389,0.063-0.772,0.189-1.141l1.613-4.745c0.31-0.911-0.11-1.912-0.977-2.329c-0.763-0.368-1.688-0.182-2.25,0.451l-1.305,1.469
	c-1.578,1.775-3.84,2.769-6.221,2.722l-4.412-0.085c-0.453-0.008-0.813-0.382-0.803-0.834c0.008-0.447,0.374-0.803,0.819-0.803
	c0.005,0,0.01,0,0.016,0l4.412,0.085c1.888,0.04,3.705-0.756,4.965-2.173l1.305-1.469c1.046-1.177,2.767-1.521,4.186-0.838
	c1.612,0.776,2.394,2.638,1.817,4.333l-1.613,4.745c-0.067,0.198-0.102,0.404-0.102,0.613v14.755
	c2.283,0.39,4.027,2.383,4.027,4.776c0,1.553-0.733,2.936-1.872,3.822c2.656,1.154,4.519,3.803,4.519,6.877v6.748
	c0,0.452-0.367,0.818-0.819,0.818c-0.453,0-0.819-0.366-0.819-0.818v-6.748c0-1.633-0.672-3.111-1.754-4.174v13.68
	c0,0.453-0.367,0.82-0.819,0.82c-0.453,0-0.819-0.367-0.819-0.82v-14.816c-0.512-0.238-1.064-0.405-1.643-0.486v18.062
	C247.69,282.311,247.324,282.677,246.871,282.677z M246.871,255.687c-1.768,0-3.207,1.438-3.207,3.207
	c0,1.768,1.438,3.207,3.207,3.207s3.208-1.439,3.208-3.207C250.078,257.125,248.639,255.687,246.871,255.687z"/>
</svg>
