<?xml version="1.0" encoding="utf-8"?>
<!-- Generator: Adobe Illustrator 16.0.0, SVG Export Plug-In . SVG Version: 6.00 Build 0)  -->
<!DOCTYPE svg PUBLIC "-//W3C//DTD SVG 1.1//EN" "http://www.w3.org/Graphics/SVG/1.1/DTD/svg11.dtd">
<svg version="1.1" id="Layer_1" xmlns="http://www.w3.org/2000/svg" xmlns:xlink="http://www.w3.org/1999/xlink" x="0px" y="0px"
	 width="250px" height="250px" viewBox="-51 -50 250 250" enable-background="new -51 -50 250 250" xml:space="preserve">
<g>
	<g>
		<path id="path2" fill="#014026" d="M73.338-47.276l19.97,64.998l64.998,19.967L93.308,57.657l-19.97,65l-19.97-65l-64.997-19.971
			l64.997-19.967L73.338-47.276z"/>
		<path id="path4" fill="#FFFFFF" d="M36.071,48.167v-3.726h9.52c1.518,0,2.532-0.153,3.048-0.46c0.735-0.439,1.1-1.093,1.1-1.985
			c0-1.004-0.426-1.751-1.288-2.232c-0.493-0.264-1.27-0.4-2.334-0.4h-3.863c-2.35,0-4.039-0.435-5.104-1.288
			c-0.641-0.533-1.15-1.208-1.523-2.039c-0.371-0.823-0.557-1.706-0.557-2.627c0-1.466,0.427-2.804,1.284-4.03
			c0.81-1.154,2.155-1.835,4.025-2.05c0.609-0.064,1.537-0.095,2.781-0.095h10.355v3.727h-9.341c-1.38,0-2.308,0.063-2.786,0.183
			c-0.939,0.236-1.408,0.94-1.408,2.118c0,0.997,0.392,1.667,1.172,2.017c0.254,0.109,0.599,0.198,1.038,0.252
			c0.436,0.067,0.97,0.099,1.593,0.099h3.345c0.843,0,1.586,0.041,2.226,0.108c0.647,0.075,1.178,0.183,1.607,0.335
			c1.46,0.49,2.482,1.377,3.039,2.636c0.45,1.027,0.671,2.113,0.671,3.26c0,1.252-0.293,2.392-0.869,3.428
			c-0.802,1.408-2.035,2.264-3.681,2.561c-0.869,0.126-2.065,0.199-3.577,0.199H36.071V48.167z M71.418,27.117
			c2.085,0,3.929,0.349,5.504,1.074c1.855,0.836,3.17,2.263,3.919,4.263c0.583,1.596,0.89,3.43,0.89,5.542
			c0,2.131-0.37,3.975-1.091,5.527c-0.886,1.86-2.258,3.169-4.113,3.914c-1.37,0.55-2.972,0.828-4.781,0.828
			c-2.35,0-4.39-0.44-6.137-1.313c-1.443-0.745-2.561-1.889-3.331-3.444c-0.778-1.558-1.171-3.466-1.171-5.709
			c0-3.979,0.988-6.82,2.97-8.508c0.847-0.72,1.872-1.25,3.09-1.621C68.377,27.3,69.8,27.117,71.418,27.117L71.418,27.117z
			 M71.45,30.619c-2.066,0-3.531,0.673-4.414,2.009c-0.69,1.046-1.034,2.722-1.034,5.02c0,2.459,0.435,4.243,1.305,5.387
			c0.862,1.15,2.254,1.714,4.164,1.714c1.838,0,3.192-0.574,4.056-1.729c0.88-1.144,1.316-2.924,1.316-5.333
			c0-2.166-0.356-3.83-1.054-4.998C74.94,31.315,73.503,30.619,71.45,30.619L71.45,30.619z M95.63,27.242l5.207,16.354l5.477-16.354
			h6.477v20.925h-4.239V32.44l-5.455,15.728l-4.585,0.007l-5.136-15.724l-0.02,15.717H89.13V27.242H95.63z"/>
		<path id="path6" fill="#FFFFFF" d="M63.362,23.117v-3.726h9.521c1.511,0,2.528-0.152,3.045-0.463
			c0.738-0.433,1.095-1.088,1.095-1.985c0-1.003-0.428-1.75-1.28-2.23c-0.5-0.265-1.277-0.405-2.332-0.405h-3.864
			c-2.346,0-4.041-0.429-5.106-1.283c-0.64-0.532-1.145-1.208-1.521-2.035c-0.369-0.826-0.555-1.707-0.555-2.63
			c0-1.46,0.426-2.806,1.281-4.031c0.818-1.15,2.161-1.834,4.026-2.048c0.609-0.062,1.538-0.095,2.781-0.095h10.355v3.73h-9.339
			c-1.374,0-2.306,0.062-2.791,0.178c-0.929,0.238-1.407,0.946-1.407,2.125c0,0.994,0.395,1.667,1.181,2.013
			c0.254,0.108,0.602,0.202,1.038,0.255c0.44,0.062,0.963,0.094,1.585,0.094h3.351c0.838,0,1.579,0.036,2.231,0.108
			c0.635,0.067,1.171,0.181,1.598,0.335c1.465,0.489,2.488,1.369,3.037,2.637c0.451,1.03,0.677,2.109,0.677,3.258
			c0,1.254-0.292,2.395-0.873,3.425c-0.799,1.414-2.03,2.269-3.685,2.56c-0.862,0.131-2.061,0.206-3.573,0.206H63.364v0.007H63.362z
			 M66.83,52.251l5.203,16.356l5.474-16.356h6.475v20.937h-4.228V57.452l-5.468,15.733l-4.577,0.004l-5.133-15.724l-0.015,15.72
			h-4.23V52.251H66.83z"/>
	</g>
	<path id="path8" fill="#014026" d="M51.787,151.422c0,1.304-0.243,2.435-0.723,3.412c-0.491,0.971-1.137,1.781-1.961,2.434
		c-0.829,0.651-1.79,1.146-2.895,1.476c-1.103,0.326-2.282,0.491-3.541,0.491c-0.852,0-1.638-0.07-2.375-0.213
		c-0.724-0.14-1.368-0.313-1.929-0.511c-0.557-0.192-1.021-0.398-1.404-0.622c-0.373-0.224-0.641-0.419-0.807-0.581
		c-0.164-0.162-0.281-0.406-0.347-0.725c-0.07-0.313-0.104-0.747-0.104-1.333c0-0.398,0.011-0.723,0.034-0.982
		c0.026-0.271,0.061-0.483,0.121-0.649c0.055-0.163,0.132-0.286,0.229-0.356c0.099-0.068,0.208-0.1,0.334-0.1
		c0.178,0,0.428,0.1,0.757,0.313c0.323,0.214,0.74,0.446,1.247,0.706c0.501,0.24,1.112,0.475,1.821,0.688
		c0.702,0.213,1.52,0.325,2.449,0.325c0.608,0,1.158-0.073,1.635-0.214c0.483-0.148,0.897-0.352,1.23-0.623
		c0.337-0.261,0.592-0.584,0.771-0.981c0.173-0.383,0.267-0.821,0.267-1.305c0-0.552-0.151-1.031-0.452-1.432
		c-0.31-0.387-0.706-0.757-1.195-1.058c-0.491-0.312-1.048-0.604-1.671-0.876c-0.619-0.272-1.259-0.553-1.919-0.863
		c-0.663-0.308-1.303-0.653-1.92-1.034c-0.625-0.389-1.182-0.849-1.665-1.387c-0.492-0.536-0.89-1.178-1.194-1.915
		c-0.31-0.734-0.458-1.616-0.458-2.642c0-1.178,0.219-2.212,0.652-3.11c0.432-0.896,1.028-1.628,1.77-2.222
		c0.745-0.585,1.615-1.031,2.615-1.32c1.006-0.297,2.076-0.441,3.207-0.441c0.581,0,1.163,0.039,1.741,0.136
		c0.584,0.092,1.132,0.21,1.637,0.355c0.506,0.163,0.955,0.327,1.35,0.517c0.387,0.193,0.652,0.35,0.776,0.479
		c0.12,0.124,0.208,0.235,0.25,0.323c0.047,0.09,0.087,0.207,0.114,0.348c0.034,0.146,0.052,0.332,0.07,0.551
		c0.01,0.221,0.01,0.501,0.01,0.825c0,0.366-0.001,0.675-0.022,0.928c-0.017,0.253-0.055,0.462-0.101,0.629
		c-0.043,0.168-0.109,0.286-0.188,0.36c-0.079,0.08-0.194,0.115-0.331,0.115s-0.359-0.098-0.665-0.268
		c-0.305-0.179-0.682-0.375-1.125-0.587c-0.441-0.205-0.96-0.389-1.544-0.556c-0.583-0.177-1.219-0.265-1.921-0.265
		c-0.542,0-1.017,0.071-1.43,0.206c-0.402,0.125-0.74,0.313-1.013,0.544c-0.269,0.229-0.478,0.513-0.608,0.841
		c-0.137,0.33-0.205,0.688-0.205,1.049c0,0.543,0.151,1.015,0.448,1.416c0.3,0.397,0.698,0.762,1.201,1.07
		c0.5,0.313,1.069,0.596,1.706,0.865c0.629,0.274,1.274,0.564,1.938,0.864c0.66,0.313,1.308,0.655,1.938,1.035
		c0.634,0.386,1.196,0.848,1.699,1.387c0.496,0.547,0.896,1.181,1.201,1.908C51.637,149.582,51.787,150.438,51.787,151.422
		L51.787,151.422z M77.706,146.216c0,2.045-0.252,3.86-0.764,5.469c-0.501,1.619-1.251,2.983-2.262,4.1
		c-1,1.127-2.24,1.979-3.712,2.57c-1.48,0.589-3.185,0.879-5.123,0.879c-1.915,0-3.581-0.246-5.003-0.75
		c-1.426-0.507-2.614-1.259-3.573-2.282c-0.952-1.031-1.658-2.334-2.135-3.924c-0.473-1.578-0.709-3.45-0.709-5.621
		c0-1.984,0.253-3.776,0.759-5.368c0.506-1.601,1.255-2.941,2.264-4.049c0.999-1.123,2.242-1.978,3.711-2.569
		c1.481-0.595,3.188-0.896,5.144-0.896c1.86,0,3.508,0.244,4.936,0.745c1.415,0.49,2.615,1.254,3.567,2.282
		c0.957,1.029,1.68,2.313,2.171,3.878C77.461,142.246,77.706,144.089,77.706,146.216L77.706,146.216z M72.45,146.472
		c0-1.292-0.101-2.465-0.304-3.523c-0.207-1.058-0.543-1.967-1.036-2.719c-0.491-0.751-1.138-1.336-1.948-1.751
		c-0.816-0.408-1.826-0.611-3.041-0.611c-1.228,0-2.254,0.224-3.073,0.69c-0.82,0.459-1.489,1.08-1.994,1.855
		c-0.509,0.771-0.866,1.667-1.075,2.708c-0.209,1.036-0.314,2.125-0.314,3.28c0,1.345,0.105,2.554,0.307,3.623
		c0.205,1.068,0.542,1.984,1.026,2.748c0.484,0.763,1.125,1.334,1.935,1.741c0.816,0.391,1.832,0.59,3.056,0.59
		c1.227,0,2.253-0.226,3.073-0.682c0.82-0.457,1.486-1.078,1.997-1.863c0.506-0.784,0.868-1.702,1.077-2.749
		C72.349,148.772,72.45,147.653,72.45,146.472L72.45,146.472z M110.577,158.131c0,0.118-0.031,0.231-0.1,0.327
		c-0.081,0.101-0.206,0.185-0.387,0.262c-0.182,0.051-0.428,0.108-0.737,0.14c-0.305,0.039-0.695,0.061-1.162,0.061
		c-0.455,0-0.844-0.021-1.147-0.061c-0.304-0.035-0.543-0.099-0.73-0.14c-0.175-0.077-0.305-0.151-0.379-0.262
		c-0.076-0.105-0.107-0.209-0.107-0.327v-20.036h-0.038l-7.107,20.018c-0.049,0.152-0.126,0.297-0.242,0.408
		c-0.118,0.104-0.267,0.185-0.471,0.251c-0.194,0.063-0.447,0.106-0.748,0.125c-0.307,0.017-0.679,0.024-1.109,0.024
		s-0.795-0.008-1.099-0.045c-0.307-0.031-0.563-0.092-0.757-0.156c-0.198-0.066-0.348-0.15-0.467-0.258
		c-0.108-0.107-0.181-0.224-0.226-0.35l-6.864-20.018h-0.036v20.037c0,0.117-0.035,0.233-0.109,0.33
		c-0.074,0.098-0.201,0.182-0.383,0.258c-0.196,0.052-0.449,0.109-0.747,0.14c-0.297,0.04-0.678,0.062-1.146,0.062
		c-0.467,0-0.837-0.021-1.149-0.062c-0.305-0.033-0.55-0.098-0.735-0.14c-0.181-0.076-0.317-0.15-0.383-0.258
		c-0.068-0.107-0.104-0.213-0.104-0.33v-21.936c0-0.653,0.164-1.14,0.512-1.487c0.346-0.339,0.805-0.507,1.375-0.507h3.277
		c0.583,0,1.088,0.038,1.508,0.138c0.415,0.097,0.779,0.251,1.086,0.472c0.303,0.22,0.55,0.519,0.758,0.873
		c0.21,0.362,0.382,0.812,0.536,1.348l5.304,14.662h0.084l5.489-14.625c0.162-0.54,0.346-0.985,0.544-1.354
		c0.205-0.376,0.425-0.662,0.687-0.884c0.269-0.233,0.563-0.396,0.93-0.493c0.35-0.099,0.764-0.138,1.23-0.138h3.373
		c0.345,0,0.625,0.039,0.882,0.126c0.246,0.096,0.449,0.22,0.6,0.388c0.165,0.168,0.295,0.38,0.368,0.625
		c0.079,0.247,0.121,0.534,0.121,0.843v21.945h0.009V158.131z M-28.679,172.944c0,0.31-0.01,0.584-0.036,0.804
		c-0.027,0.229-0.068,0.408-0.116,0.542c-0.045,0.144-0.103,0.236-0.176,0.286c-0.073,0.05-0.159,0.082-0.252,0.082
		c-0.14,0-0.369-0.104-0.677-0.299c-0.318-0.192-0.728-0.406-1.245-0.631s-1.132-0.448-1.847-0.639
		c-0.725-0.188-1.553-0.285-2.501-0.285c-1.013,0-1.925,0.172-2.741,0.519c-0.827,0.355-1.522,0.856-2.105,1.496
		c-0.578,0.643-1.026,1.41-1.339,2.31c-0.313,0.902-0.468,1.897-0.468,2.987c0,1.201,0.16,2.249,0.473,3.166
		c0.325,0.905,0.766,1.663,1.334,2.284c0.573,0.605,1.264,1.081,2.065,1.392c0.805,0.314,1.695,0.466,2.66,0.466
		c0.474,0,0.942-0.056,1.408-0.151c0.467-0.109,0.897-0.274,1.298-0.488v-4.88h-3.964c-0.194,0-0.339-0.12-0.447-0.366
		c-0.104-0.247-0.164-0.649-0.164-1.228c0-0.313,0.013-0.563,0.038-0.766c0.025-0.201,0.073-0.367,0.119-0.49
		c0.05-0.118,0.119-0.213,0.194-0.277c0.076-0.058,0.165-0.082,0.254-0.082h7.06c0.174,0,0.33,0.024,0.458,0.082
		c0.136,0.064,0.252,0.159,0.361,0.277c0.1,0.112,0.181,0.257,0.229,0.42c0.057,0.173,0.081,0.366,0.081,0.58v8.338
		c0,0.328-0.056,0.615-0.17,0.855c-0.109,0.245-0.338,0.432-0.692,0.572c-0.351,0.138-0.783,0.283-1.305,0.438
		c-0.521,0.146-1.055,0.284-1.613,0.383c-0.551,0.108-1.117,0.192-1.685,0.245c-0.563,0.064-1.13,0.086-1.706,0.086
		c-1.668,0-3.165-0.248-4.489-0.726c-1.318-0.485-2.439-1.177-3.358-2.088c-0.911-0.907-1.616-2.017-2.101-3.33
		c-0.486-1.315-0.729-2.792-0.729-4.455c0-1.72,0.257-3.259,0.776-4.628c0.517-1.363,1.247-2.52,2.195-3.484
		c0.949-0.943,2.093-1.675,3.437-2.188c1.339-0.498,2.835-0.752,4.478-0.752c0.909,0,1.732,0.06,2.479,0.182
		c0.74,0.122,1.391,0.279,1.95,0.459c0.547,0.175,1.011,0.369,1.377,0.569c0.369,0.216,0.625,0.388,0.766,0.54
		c0.147,0.151,0.251,0.365,0.313,0.64C-28.715,172.001-28.679,172.404-28.679,172.944L-28.679,172.944z M-7.329,182.813
		c0,1.281-0.187,2.425-0.566,3.431c-0.375,1.021-0.929,1.876-1.657,2.577c-0.73,0.703-1.638,1.232-2.717,1.601
		c-1.078,0.366-2.313,0.552-3.716,0.552c-1.313,0-2.498-0.163-3.536-0.49c-1.048-0.331-1.931-0.825-2.652-1.495
		c-0.726-0.664-1.278-1.499-1.655-2.503c-0.379-0.992-0.574-2.157-0.574-3.502v-12.715c0-0.104,0.033-0.202,0.101-0.291
		c0.064-0.097,0.178-0.156,0.343-0.214c0.167-0.049,0.386-0.098,0.656-0.126c0.268-0.032,0.61-0.041,1.033-0.041
		c0.4,0,0.747,0.011,1.006,0.041c0.272,0.041,0.487,0.083,0.648,0.126c0.165,0.048,0.277,0.117,0.343,0.214
		c0.075,0.089,0.104,0.187,0.104,0.291v12.362c0,0.821,0.104,1.548,0.313,2.16c0.204,0.596,0.496,1.11,0.88,1.503
		c0.381,0.395,0.84,0.707,1.376,0.909c0.539,0.193,1.13,0.296,1.789,0.296c0.667,0,1.267-0.103,1.794-0.305
		c0.533-0.215,0.979-0.517,1.344-0.9c0.367-0.393,0.654-0.887,0.851-1.452c0.199-0.582,0.298-1.241,0.298-1.974V170.27
		c0-0.105,0.029-0.203,0.1-0.29c0.061-0.082,0.174-0.158,0.338-0.214c0.161-0.052,0.379-0.1,0.653-0.129
		c0.276-0.03,0.62-0.039,1.025-0.039c0.413,0,0.746,0.01,1.014,0.039c0.266,0.042,0.479,0.084,0.638,0.129
		c0.163,0.048,0.278,0.132,0.343,0.214c0.061,0.087,0.097,0.184,0.097,0.29v12.547h-0.013V182.813z M-17.286,165.808
		c0,0.754-0.154,1.274-0.443,1.579c-0.297,0.307-0.86,0.449-1.685,0.449c-0.828,0-1.392-0.143-1.672-0.428
		c-0.293-0.296-0.439-0.804-0.439-1.54c0-0.761,0.151-1.292,0.454-1.596c0.297-0.288,0.86-0.439,1.676-0.439
		c0.834,0,1.397,0.142,1.686,0.426C-17.434,164.547-17.286,165.055-17.286,165.808L-17.286,165.808z M-10.236,165.808
		c0,0.754-0.155,1.274-0.455,1.579c-0.297,0.307-0.86,0.449-1.689,0.449c-0.83,0-1.388-0.143-1.678-0.428
		c-0.278-0.296-0.417-0.804-0.417-1.54c0-0.761,0.144-1.292,0.438-1.596c0.296-0.288,0.858-0.439,1.688-0.439
		c0.824,0,1.386,0.142,1.67,0.426C-10.384,164.547-10.236,165.055-10.236,165.808L-10.236,165.808z M21.593,190.032
		c0,0.109-0.028,0.206-0.089,0.292c-0.065,0.092-0.172,0.149-0.33,0.215c-0.152,0.05-0.366,0.09-0.624,0.115
		c-0.26,0.04-0.588,0.052-0.985,0.052c-0.393,0-0.721-0.012-0.98-0.052c-0.26-0.029-0.463-0.068-0.621-0.115
		c-0.146-0.065-0.254-0.123-0.319-0.215c-0.066-0.086-0.099-0.182-0.099-0.292v-17.034h-0.032l-6.041,17.016
		c-0.043,0.144-0.111,0.253-0.208,0.346c-0.098,0.094-0.223,0.162-0.395,0.227c-0.167,0.05-0.383,0.077-0.638,0.1
		c-0.254,0.022-0.572,0.022-0.938,0.022c-0.37,0-0.68-0.013-0.936-0.041c-0.263-0.021-0.477-0.068-0.642-0.126
		c-0.169-0.056-0.305-0.124-0.396-0.214c-0.096-0.088-0.162-0.194-0.196-0.312l-5.827-17.014h-0.04v17.034
		c0,0.106-0.025,0.203-0.086,0.291c-0.064,0.09-0.173,0.146-0.328,0.214c-0.169,0.052-0.378,0.091-0.632,0.116
		c-0.257,0.038-0.58,0.051-0.979,0.051c-0.392,0-0.715-0.013-0.975-0.051c-0.262-0.03-0.469-0.068-0.626-0.116
		c-0.156-0.067-0.265-0.124-0.328-0.214c-0.064-0.088-0.089-0.184-0.089-0.291v-18.646c0-0.545,0.147-0.967,0.431-1.259
		c0.293-0.301,0.678-0.438,1.173-0.438h2.781c0.494,0,0.927,0.037,1.282,0.116c0.361,0.084,0.667,0.213,0.93,0.404
		c0.247,0.186,0.474,0.44,0.644,0.746c0.172,0.31,0.328,0.696,0.454,1.146l4.506,12.466h0.067l4.666-12.438
		c0.136-0.46,0.292-0.837,0.457-1.152c0.173-0.309,0.367-0.556,0.586-0.758c0.217-0.191,0.483-0.331,0.782-0.416
		c0.308-0.083,0.657-0.118,1.054-0.118h2.867c0.293,0,0.542,0.039,0.75,0.118c0.209,0.068,0.385,0.18,0.518,0.33
		c0.135,0.135,0.236,0.328,0.313,0.535c0.069,0.213,0.101,0.458,0.101,0.722v18.634h0.017V190.032z M43.203,182.813
		c0,1.281-0.187,2.425-0.568,3.431c-0.376,1.021-0.928,1.876-1.656,2.577c-0.737,0.703-1.638,1.232-2.719,1.601
		c-1.083,0.366-2.311,0.552-3.717,0.552c-1.31,0-2.491-0.163-3.537-0.49c-1.045-0.331-1.926-0.825-2.65-1.495
		c-0.725-0.664-1.276-1.499-1.654-2.503c-0.381-0.992-0.574-2.157-0.574-3.502v-12.715c0-0.104,0.033-0.202,0.099-0.291
		c0.064-0.082,0.177-0.156,0.339-0.214c0.164-0.049,0.387-0.098,0.657-0.126c0.267-0.032,0.609-0.041,1.033-0.041
		c0.402,0,0.745,0.011,1.01,0.041c0.273,0.041,0.485,0.083,0.646,0.126c0.164,0.048,0.276,0.132,0.348,0.214
		c0.074,0.089,0.104,0.187,0.104,0.291v12.362c0,0.821,0.105,1.548,0.308,2.16c0.203,0.596,0.495,1.11,0.88,1.503
		c0.381,0.395,0.84,0.707,1.371,0.909c0.538,0.193,1.13,0.296,1.79,0.296c0.668,0,1.271-0.103,1.794-0.305
		c0.533-0.202,0.979-0.517,1.343-0.9c0.367-0.393,0.654-0.887,0.852-1.452C38.903,184.259,39,183.6,39,182.867V170.27
		c0-0.105,0.032-0.203,0.101-0.29c0.059-0.082,0.174-0.158,0.332-0.214c0.155-0.052,0.381-0.1,0.658-0.129
		c0.278-0.03,0.62-0.039,1.027-0.039c0.404,0,0.744,0.01,1.012,0.039c0.264,0.042,0.478,0.084,0.642,0.129
		c0.158,0.048,0.274,0.132,0.332,0.214c0.067,0.087,0.099,0.184,0.099,0.29V182.813z M33.245,165.808
		c0,0.754-0.153,1.274-0.438,1.579c-0.299,0.307-0.861,0.449-1.686,0.449c-0.826,0-1.389-0.143-1.677-0.428
		c-0.292-0.296-0.433-0.804-0.433-1.54c0-0.761,0.145-1.292,0.453-1.596c0.299-0.288,0.863-0.439,1.673-0.439
		c0.834,0,1.398,0.142,1.684,0.426C33.099,164.547,33.245,165.055,33.245,165.808L33.245,165.808z M40.292,165.808
		c0,0.754-0.154,1.274-0.453,1.579c-0.297,0.307-0.859,0.449-1.688,0.449c-0.831,0-1.388-0.143-1.67-0.428
		c-0.28-0.296-0.427-0.804-0.427-1.54c0-0.761,0.147-1.292,0.438-1.596c0.299-0.288,0.862-0.439,1.688-0.439
		c0.824,0,1.387,0.142,1.676,0.426C40.146,164.547,40.292,165.055,40.292,165.808L40.292,165.808z M54.456,190.778l0.415,0.886
		c0.197,0.426,0.338,0.784,0.433,1.098c0.094,0.313,0.133,0.612,0.133,0.909c0,0.496-0.092,0.929-0.273,1.28
		c-0.185,0.359-0.435,0.645-0.747,0.865c-0.313,0.234-0.678,0.397-1.1,0.509c-0.423,0.114-0.869,0.175-1.357,0.175
		c-0.473,0-0.917-0.031-1.317-0.103c-0.415-0.062-0.742-0.134-1.005-0.205c-0.262-0.07-0.446-0.142-0.568-0.191
		c-0.114-0.064-0.194-0.122-0.242-0.216c-0.044-0.093-0.08-0.192-0.104-0.325c-0.018-0.137-0.03-0.331-0.03-0.561
		c0-0.432,0.034-0.735,0.119-0.896c0.084-0.172,0.223-0.255,0.438-0.255h1.878c0.311,0,0.543-0.063,0.702-0.204
		c0.154-0.131,0.228-0.32,0.228-0.56c0-0.12-0.026-0.277-0.085-0.427c-0.044-0.165-0.114-0.336-0.188-0.512l-0.519-1.141
		c-0.442-0.028-0.87-0.104-1.287-0.192c-0.417-0.1-0.851-0.214-1.299-0.387c-0.448-0.161-0.825-0.333-1.13-0.52
		c-0.313-0.173-0.533-0.335-0.676-0.483c-0.134-0.138-0.233-0.34-0.294-0.604c-0.058-0.27-0.088-0.646-0.088-1.137
		c0-0.332,0.009-0.606,0.031-0.839c0.02-0.233,0.053-0.407,0.104-0.553c0.049-0.143,0.115-0.233,0.193-0.295
		c0.084-0.065,0.179-0.097,0.289-0.097c0.145,0,0.359,0.097,0.637,0.273c0.279,0.172,0.633,0.375,1.06,0.594
		c0.427,0.209,0.95,0.402,1.549,0.583c0.594,0.183,1.293,0.27,2.082,0.27c0.516,0,0.982-0.066,1.392-0.185
		c0.412-0.115,0.76-0.299,1.047-0.522c0.289-0.225,0.502-0.497,0.659-0.832c0.147-0.33,0.222-0.708,0.222-1.111
		c0-0.473-0.126-0.886-0.384-1.219c-0.256-0.329-0.596-0.632-1.013-0.893c-0.417-0.272-0.886-0.528-1.415-0.761
		c-0.532-0.228-1.077-0.469-1.636-0.733c-0.561-0.252-1.104-0.551-1.629-0.878c-0.534-0.321-1-0.72-1.417-1.178
		c-0.424-0.457-0.757-0.997-1.017-1.625c-0.255-0.63-0.386-1.374-0.386-2.249c0-0.997,0.189-1.874,0.558-2.643
		c0.373-0.755,0.87-1.384,1.502-1.891c0.637-0.505,1.371-0.874,2.226-1.118c0.858-0.261,1.77-0.368,2.729-0.368
		c0.488,0,0.983,0.03,1.486,0.107c0.493,0.074,0.957,0.171,1.39,0.309c0.434,0.14,0.81,0.281,1.147,0.438
		c0.33,0.164,0.552,0.301,0.662,0.407c0.105,0.106,0.177,0.193,0.22,0.268c0.033,0.086,0.072,0.178,0.099,0.311
		c0.025,0.12,0.041,0.271,0.057,0.471c0.012,0.18,0.015,0.413,0.015,0.697c0,0.308-0.003,0.571-0.021,0.788
		c-0.016,0.213-0.041,0.396-0.08,0.537c-0.04,0.133-0.097,0.243-0.164,0.306c-0.075,0.064-0.167,0.097-0.291,0.097
		c-0.115,0-0.298-0.071-0.563-0.224c-0.254-0.139-0.575-0.32-0.95-0.503c-0.382-0.169-0.823-0.33-1.318-0.479
		c-0.493-0.143-1.034-0.214-1.631-0.214c-0.465,0-0.866,0.049-1.21,0.174c-0.343,0.1-0.63,0.265-0.861,0.457
		c-0.228,0.203-0.411,0.439-0.519,0.725c-0.117,0.29-0.171,0.569-0.171,0.886c0,0.472,0.124,0.863,0.378,1.202
		c0.258,0.344,0.597,0.641,1.023,0.904c0.427,0.269,0.913,0.512,1.449,0.751c0.539,0.232,1.083,0.478,1.648,0.73
		c0.565,0.271,1.117,0.544,1.647,0.886c0.545,0.331,1.022,0.728,1.444,1.178c0.416,0.456,0.763,0.992,1.019,1.621
		c0.254,0.624,0.386,1.351,0.386,2.188c0,1.087-0.212,2.067-0.642,2.953c-0.428,0.874-1.061,1.619-1.896,2.218
		C56.805,190.104,55.746,190.531,54.456,190.778L54.456,190.778z M69.928,184.78c0-0.612,0.086-1.181,0.264-1.71
		c0.183-0.528,0.445-1.042,0.798-1.509c0.359-0.475,0.793-0.927,1.32-1.364c0.521-0.428,1.125-0.854,1.817-1.261
		c-0.389-0.499-0.721-0.957-1.012-1.396c-0.285-0.439-0.523-0.857-0.705-1.253c-0.188-0.396-0.336-0.785-0.424-1.141
		c-0.091-0.366-0.139-0.723-0.139-1.078c0-0.753,0.139-1.467,0.409-2.13c0.273-0.659,0.688-1.229,1.263-1.72
		c0.568-0.487,1.296-0.863,2.174-1.147c0.887-0.298,1.943-0.438,3.179-0.438c1.131,0,2.104,0.107,2.931,0.325
		c0.815,0.215,1.484,0.522,2.023,0.916c0.528,0.396,0.916,0.878,1.181,1.454c0.26,0.581,0.386,1.224,0.386,1.948
		c0,0.65-0.107,1.239-0.329,1.803c-0.227,0.549-0.557,1.065-1.006,1.569c-0.442,0.503-0.999,0.975-1.671,1.423
		c-0.664,0.454-1.449,0.927-2.344,1.389c0.299,0.331,0.617,0.694,0.981,1.055c0.366,0.368,0.741,0.748,1.118,1.127
		c0.386,0.362,0.775,0.745,1.167,1.107c0.384,0.366,0.761,0.706,1.132,1.014c0.145-0.213,0.279-0.467,0.389-0.743
		c0.115-0.284,0.213-0.582,0.304-0.896c0.083-0.314,0.145-0.63,0.194-0.957c0.049-0.331,0.083-0.64,0.083-0.961v-0.501
		c0-0.116,0.023-0.224,0.062-0.312c0.04-0.092,0.132-0.161,0.26-0.212c0.143-0.052,0.333-0.104,0.582-0.119
		c0.257-0.029,0.582-0.039,0.985-0.039c0.375,0,0.692,0.011,0.935,0.02c0.242,0.021,0.443,0.062,0.589,0.109
		c0.14,0.058,0.247,0.126,0.311,0.224c0.062,0.093,0.083,0.213,0.083,0.34v0.523c0,0.521-0.032,1.034-0.108,1.567
		c-0.081,0.541-0.185,1.05-0.325,1.56c-0.148,0.497-0.332,0.978-0.546,1.435c-0.225,0.458-0.459,0.885-0.724,1.277
		c0.375,0.3,0.702,0.534,0.983,0.728c0.274,0.192,0.498,0.34,0.7,0.459c0.195,0.11,0.354,0.191,0.491,0.233
		c0.12,0.042,0.241,0.071,0.321,0.071c0.12,0,0.239,0,0.329,0c0.113,0,0.184,0.033,0.252,0.109c0.067,0.073,0.104,0.203,0.134,0.396
		c0.043,0.195,0.058,0.489,0.058,0.867c0,0.39,0,0.714-0.026,0.936c-0.014,0.232-0.04,0.394-0.083,0.511
		c-0.038,0.11-0.1,0.194-0.191,0.262c-0.088,0.07-0.244,0.135-0.459,0.196c-0.226,0.058-0.476,0.089-0.772,0.089
		c-0.236,0-0.487-0.031-0.745-0.089c-0.253-0.062-0.54-0.167-0.871-0.337c-0.334-0.17-0.724-0.379-1.16-0.661
		c-0.45-0.274-0.961-0.631-1.546-1.058c-0.505,0.343-1.024,0.656-1.562,0.929c-0.547,0.282-1.111,0.507-1.692,0.691
		c-0.589,0.186-1.19,0.323-1.82,0.42c-0.623,0.096-1.296,0.144-2.008,0.144c-0.698,0-1.389-0.059-2.053-0.165
		c-0.665-0.105-1.297-0.274-1.888-0.489c-0.582-0.222-1.12-0.503-1.604-0.834c-0.484-0.33-0.903-0.736-1.245-1.188
		c-0.34-0.457-0.619-0.98-0.804-1.578C70.026,186.145,69.928,185.496,69.928,184.78L69.928,184.78z M76.123,173.853
		c0,0.226,0.028,0.459,0.104,0.703c0.075,0.245,0.177,0.5,0.317,0.764c0.134,0.266,0.307,0.54,0.509,0.844
		c0.208,0.299,0.428,0.623,0.695,0.969c0.64-0.346,1.17-0.67,1.594-0.969c0.42-0.282,0.766-0.568,1.025-0.844
		c0.262-0.273,0.449-0.549,0.547-0.822c0.105-0.274,0.159-0.563,0.159-0.856c0-0.255-0.054-0.502-0.141-0.727
		c-0.101-0.225-0.242-0.428-0.446-0.601c-0.217-0.162-0.47-0.296-0.764-0.395c-0.309-0.093-0.656-0.143-1.07-0.143
		c-0.452,0-0.837,0.05-1.146,0.151c-0.33,0.111-0.589,0.253-0.793,0.44c-0.212,0.184-0.358,0.418-0.455,0.671
		C76.159,173.284,76.123,173.562,76.123,173.853L76.123,173.853z M74.328,184.558c0,0.467,0.09,0.885,0.261,1.272
		c0.173,0.395,0.416,0.731,0.744,1.005c0.32,0.288,0.725,0.501,1.196,0.653c0.475,0.162,1.037,0.246,1.661,0.246
		c0.323,0,0.639-0.035,0.963-0.096c0.316-0.065,0.626-0.141,0.938-0.243c0.304-0.104,0.586-0.24,0.864-0.375
		c0.277-0.144,0.533-0.312,0.774-0.479c-0.493-0.386-0.978-0.805-1.468-1.243c-0.488-0.429-0.969-0.877-1.431-1.314
		c-0.461-0.438-0.912-0.884-1.342-1.32c-0.426-0.434-0.795-0.851-1.129-1.236c-0.379,0.239-0.692,0.479-0.946,0.733
		c-0.249,0.256-0.453,0.509-0.613,0.771c-0.168,0.258-0.281,0.521-0.361,0.798C74.37,183.996,74.328,184.282,74.328,184.558
		L74.328,184.558z"/>
	<path id="path10" fill="#014026" d="M115.587,171.438c0,0.309-0.011,0.572-0.037,0.807c-0.031,0.211-0.062,0.395-0.123,0.53
		c-0.05,0.127-0.121,0.235-0.203,0.295c-0.072,0.058-0.168,0.104-0.268,0.104h-5.223v16.857c0,0.107-0.035,0.205-0.108,0.293
		c-0.072,0.09-0.182,0.146-0.346,0.215c-0.153,0.05-0.379,0.089-0.654,0.113c-0.274,0.041-0.624,0.052-1.032,0.052
		c-0.403,0-0.746-0.011-1.024-0.052c-0.274-0.029-0.497-0.068-0.651-0.113c-0.159-0.069-0.277-0.125-0.345-0.215
		c-0.075-0.088-0.103-0.183-0.103-0.293v-16.856h-5.235c-0.103,0-0.202-0.046-0.273-0.105c-0.072-0.06-0.141-0.165-0.191-0.293
		c-0.056-0.136-0.093-0.317-0.123-0.531c-0.034-0.235-0.043-0.505-0.043-0.805c0-0.324,0.01-0.599,0.043-0.823
		c0.033-0.224,0.074-0.409,0.123-0.541c0.051-0.141,0.119-0.233,0.191-0.301c0.071-0.062,0.173-0.091,0.273-0.091h14.725
		c0.102,0,0.184,0.029,0.267,0.091c0.083,0.067,0.151,0.153,0.202,0.301c0.063,0.126,0.101,0.317,0.123,0.541
		C115.576,170.839,115.587,171.115,115.587,171.438L115.587,171.438z M130.454,188.938c0,0.318-0.009,0.579-0.042,0.791
		c-0.029,0.206-0.067,0.375-0.12,0.51c-0.048,0.134-0.116,0.226-0.2,0.283c-0.074,0.067-0.171,0.088-0.269,0.088h-10.487
		c-0.354,0-0.651-0.105-0.895-0.319c-0.246-0.205-0.368-0.54-0.368-1.01v-18.24c0-0.481,0.121-0.815,0.368-1.025
		c0.243-0.201,0.54-0.32,0.895-0.32h10.438c0.104,0,0.184,0.031,0.264,0.094c0.077,0.055,0.133,0.141,0.197,0.278
		c0.048,0.136,0.092,0.317,0.11,0.521c0.03,0.211,0.038,0.476,0.038,0.804c0,0.303-0.009,0.553-0.038,0.767
		c-0.023,0.217-0.063,0.379-0.11,0.516c-0.059,0.136-0.12,0.223-0.197,0.285c-0.08,0.062-0.162,0.095-0.264,0.095h-7.463v5.09h6.291
		c0.104,0,0.186,0.034,0.266,0.097c0.079,0.065,0.148,0.145,0.204,0.279c0.05,0.118,0.091,0.284,0.118,0.501
		c0.03,0.213,0.039,0.469,0.039,0.758c0,0.32-0.009,0.573-0.039,0.775c-0.028,0.196-0.068,0.371-0.118,0.5
		c-0.056,0.114-0.125,0.211-0.204,0.269c-0.08,0.049-0.162,0.082-0.266,0.082h-6.291v5.884h7.513c0.104,0,0.185,0.036,0.265,0.093
		c0.082,0.06,0.156,0.156,0.204,0.285c0.053,0.123,0.092,0.302,0.117,0.516C130.436,188.392,130.454,188.618,130.454,188.938
		L130.454,188.938z M146.309,184.332c0,1.097-0.2,2.067-0.61,2.892c-0.418,0.834-0.969,1.519-1.666,2.076
		c-0.71,0.549-1.524,0.967-2.469,1.254c-0.938,0.286-1.935,0.419-3.003,0.419c-0.726,0-1.399-0.064-2.017-0.186
		c-0.623-0.124-1.165-0.266-1.634-0.428c-0.479-0.171-0.872-0.346-1.199-0.539c-0.321-0.182-0.544-0.347-0.692-0.493
		c-0.13-0.138-0.236-0.34-0.297-0.604c-0.062-0.271-0.091-0.646-0.091-1.138c0-0.331,0.009-0.606,0.029-0.84
		c0.035-0.23,0.062-0.407,0.111-0.549c0.054-0.144,0.115-0.235,0.195-0.296c0.079-0.064,0.175-0.097,0.287-0.097
		c0.152,0,0.365,0.097,0.641,0.273c0.275,0.173,0.623,0.376,1.059,0.591c0.432,0.213,0.946,0.406,1.547,0.584
		c0.605,0.182,1.294,0.271,2.081,0.271c0.52,0,0.986-0.067,1.396-0.186c0.41-0.114,0.762-0.299,1.048-0.521
		c0.284-0.228,0.498-0.5,0.653-0.832c0.153-0.33,0.223-0.708,0.223-1.114c0-0.471-0.12-0.886-0.378-1.217
		c-0.262-0.33-0.598-0.63-1.02-0.894c-0.41-0.271-0.88-0.527-1.409-0.76c-0.526-0.229-1.073-0.47-1.634-0.733
		c-0.561-0.254-1.106-0.551-1.632-0.876c-0.536-0.323-1.002-0.723-1.42-1.181c-0.418-0.457-0.753-0.996-1.009-1.624
		c-0.258-0.63-0.387-1.374-0.387-2.249c0-0.998,0.189-1.873,0.56-2.644c0.37-0.755,0.866-1.384,1.497-1.89
		c0.631-0.505,1.376-0.875,2.231-1.119c0.859-0.258,1.763-0.368,2.721-0.368c0.5,0,0.987,0.031,1.485,0.106
		c0.501,0.078,0.958,0.173,1.396,0.312c0.427,0.127,0.802,0.28,1.144,0.438c0.33,0.161,0.541,0.298,0.66,0.405
		c0.107,0.108,0.181,0.194,0.216,0.268c0.039,0.088,0.073,0.181,0.105,0.31c0.021,0.124,0.039,0.275,0.056,0.471
		c0.009,0.182,0.017,0.416,0.017,0.701c0,0.305-0.008,0.568-0.033,0.785c-0.011,0.214-0.039,0.395-0.082,0.538
		c-0.037,0.135-0.092,0.243-0.164,0.305c-0.061,0.065-0.158,0.098-0.285,0.098c-0.104,0-0.299-0.073-0.561-0.222
		c-0.251-0.143-0.574-0.321-0.957-0.505c-0.375-0.171-0.812-0.331-1.303-0.479c-0.505-0.145-1.038-0.216-1.63-0.216
		c-0.463,0-0.87,0.05-1.212,0.177c-0.343,0.097-0.629,0.261-0.867,0.454c-0.226,0.204-0.4,0.438-0.519,0.726
		c-0.117,0.29-0.17,0.579-0.17,0.884c0,0.476,0.124,0.864,0.385,1.203c0.254,0.344,0.586,0.652,1.009,0.904
		c0.429,0.269,0.919,0.515,1.459,0.752c0.525,0.234,1.08,0.477,1.649,0.729c0.56,0.271,1.108,0.544,1.639,0.886
		c0.543,0.332,1.021,0.729,1.445,1.188c0.417,0.457,0.768,0.985,1.021,1.621C146.179,182.763,146.309,183.499,146.309,184.332
		L146.309,184.332z M164.659,184.332c0,0.741-0.104,1.414-0.308,2.026c-0.203,0.6-0.496,1.137-0.846,1.602
		c-0.366,0.461-0.794,0.856-1.291,1.2c-0.501,0.34-1.054,0.604-1.653,0.828c-0.597,0.213-1.237,0.379-1.929,0.476
		c-0.687,0.105-1.441,0.146-2.282,0.146h-5.557c-0.354,0-0.651-0.105-0.889-0.319c-0.243-0.205-0.368-0.544-0.368-1.01v-18.24
		c0-0.481,0.125-0.815,0.368-1.025c0.24-0.201,0.534-0.32,0.889-0.32h5.238c1.28,0,2.365,0.107,3.251,0.331
		c0.898,0.213,1.625,0.539,2.239,0.979c0.607,0.436,1.077,0.984,1.4,1.658c0.332,0.661,0.489,1.442,0.489,2.354
		c0,0.507-0.072,0.979-0.188,1.416c-0.134,0.45-0.328,0.858-0.574,1.22c-0.242,0.366-0.548,0.692-0.904,0.972
		c-0.36,0.284-0.776,0.517-1.232,0.683c0.592,0.105,1.141,0.3,1.64,0.567c0.497,0.269,0.936,0.609,1.316,1.037
		c0.365,0.427,0.657,0.931,0.874,1.494C164.555,182.976,164.659,183.621,164.659,184.332L164.659,184.332z M159.171,175.512
		c0-0.417-0.073-0.782-0.192-1.129c-0.129-0.332-0.326-0.609-0.581-0.824c-0.262-0.226-0.58-0.389-0.979-0.517
		c-0.396-0.128-0.919-0.178-1.57-0.178h-2.144v5.427h2.372c0.608,0,1.103-0.073,1.466-0.214c0.367-0.142,0.663-0.344,0.915-0.6
		c0.236-0.252,0.421-0.551,0.542-0.883C159.106,176.248,159.171,175.898,159.171,175.512L159.171,175.512z M160.257,184.485
		c0-0.489-0.075-0.919-0.242-1.305c-0.156-0.387-0.394-0.704-0.717-0.959c-0.308-0.266-0.704-0.455-1.185-0.609
		c-0.49-0.132-1.125-0.203-1.898-0.203h-2.513v5.957h3.072c0.592,0,1.08-0.058,1.486-0.182c0.405-0.116,0.757-0.317,1.047-0.555
		c0.3-0.241,0.53-0.545,0.704-0.899C160.182,185.36,160.257,184.953,160.257,184.485L160.257,184.485z M172.358,190.032
		c0,0.109-0.029,0.206-0.103,0.292c-0.072,0.092-0.194,0.149-0.348,0.215c-0.161,0.05-0.388,0.09-0.657,0.115
		c-0.261,0.04-0.607,0.052-1.024,0.052c-0.418,0-0.753-0.012-1.025-0.052c-0.277-0.029-0.504-0.068-0.66-0.115
		c-0.154-0.065-0.277-0.123-0.341-0.215c-0.073-0.086-0.106-0.182-0.106-0.292v-19.765c0-0.098,0.033-0.202,0.106-0.285
		c0.074-0.093,0.187-0.162,0.35-0.213c0.174-0.05,0.386-0.092,0.655-0.133c0.274-0.032,0.607-0.041,1.021-0.041
		c0.421,0,0.768,0.011,1.028,0.041c0.266,0.047,0.492,0.086,0.655,0.133c0.151,0.051,0.275,0.12,0.347,0.213
		c0.074,0.083,0.104,0.188,0.104,0.285v19.765H172.358z M172.49,165.798c0,0.764-0.161,1.306-0.472,1.61
		c-0.321,0.321-0.902,0.468-1.767,0.468c-0.865,0-1.451-0.146-1.761-0.447c-0.316-0.298-0.473-0.815-0.473-1.55
		c0-0.782,0.163-1.323,0.491-1.628c0.315-0.305,0.907-0.449,1.776-0.449c0.854,0,1.439,0.145,1.744,0.438
		C172.339,164.528,172.49,165.046,172.49,165.798L172.49,165.798z M193.231,190.032c0,0.109-0.031,0.206-0.105,0.292
		c-0.077,0.092-0.188,0.149-0.352,0.215c-0.155,0.05-0.366,0.09-0.643,0.115c-0.267,0.04-0.61,0.052-1.003,0.052
		c-0.418,0-0.768-0.012-1.048-0.052c-0.282-0.029-0.485-0.068-0.643-0.115c-0.148-0.065-0.263-0.123-0.332-0.215
		c-0.077-0.086-0.103-0.182-0.103-0.292v-8.461h-7.848v8.461c0,0.109-0.043,0.206-0.104,0.292c-0.063,0.092-0.183,0.149-0.33,0.215
		c-0.164,0.05-0.376,0.09-0.654,0.115c-0.27,0.04-0.609,0.052-1.02,0.052c-0.418,0-0.758-0.012-1.021-0.052
		c-0.278-0.029-0.5-0.068-0.652-0.115c-0.162-0.065-0.282-0.123-0.347-0.215c-0.068-0.086-0.111-0.182-0.111-0.292v-19.765
		c0-0.098,0.043-0.202,0.111-0.285c0.068-0.093,0.185-0.162,0.347-0.213c0.152-0.05,0.374-0.092,0.652-0.133
		c0.274-0.032,0.604-0.041,1.021-0.041c0.41,0,0.76,0.011,1.02,0.041c0.278,0.047,0.49,0.086,0.654,0.133
		c0.147,0.051,0.271,0.12,0.33,0.213c0.061,0.083,0.104,0.188,0.104,0.285v7.705h7.848v-7.705c0-0.098,0.025-0.202,0.103-0.285
		c0.071-0.093,0.184-0.162,0.332-0.213c0.157-0.05,0.36-0.092,0.643-0.133c0.28-0.032,0.63-0.041,1.048-0.041
		c0.393,0,0.742,0.011,1.003,0.041c0.276,0.047,0.487,0.086,0.643,0.133c0.164,0.051,0.274,0.12,0.352,0.213
		c0.074,0.083,0.105,0.188,0.105,0.285V190.032z"/>
</g>
</svg>
